<svg xmlns="http://www.w3.org/2000/svg" viewBox="0 0 40.97 40.97"><defs><style>.cls-1{fill-rule:evenodd;}</style></defs><g id="Layer_2" data-name="Layer 2"><g id="Layer_1-2" data-name="Layer 1"><path class="cls-1" d="M20.49,0A20.49,20.49,0,1,0,41,20.49,20.49,20.49,0,0,0,20.49,0ZM32.18,25.34a8.7,8.7,0,0,1-.55,2.85,6,6,0,0,1-3.44,3.44,8.65,8.65,0,0,1-2.85.55c-1.26.06-1.66.07-4.85.07s-3.6,0-4.85-.07a8.77,8.77,0,0,1-2.86-.55,6,6,0,0,1-3.44-3.44,8.48,8.48,0,0,1-.54-2.85c-.06-1.26-.08-1.66-.08-4.85s0-3.6.07-4.85a8.77,8.77,0,0,1,.55-2.86,6.07,6.07,0,0,1,3.44-3.44,8.77,8.77,0,0,1,2.86-.55c1.25,0,1.65-.07,4.85-.07s3.59,0,4.85.07a8.7,8.7,0,0,1,2.85.55,5.82,5.82,0,0,1,2.09,1.36,5.71,5.71,0,0,1,1.35,2.08,8.77,8.77,0,0,1,.55,2.86c.06,1.25.07,1.65.07,4.85S32.24,24.08,32.18,25.34Z"/><path class="cls-1" d="M20.49,16.57a3.92,3.92,0,1,0,3.92,3.92A3.91,3.91,0,0,0,20.49,16.57Z"/><path class="cls-1" d="M30.06,15.73a6.49,6.49,0,0,0-.4-2.18,3.91,3.91,0,0,0-2.23-2.23,6.5,6.5,0,0,0-2.19-.41c-1.24-.06-1.61-.07-4.75-.07s-3.52,0-4.76.07a6.42,6.42,0,0,0-2.18.41,3.91,3.91,0,0,0-2.23,2.23,6.42,6.42,0,0,0-.41,2.18c-.05,1.24-.07,1.62-.07,4.76s0,3.51.07,4.75a6.5,6.5,0,0,0,.41,2.19,3.91,3.91,0,0,0,2.23,2.23,6.49,6.49,0,0,0,2.18.4c1.24.06,1.62.07,4.76.07s3.51,0,4.75-.07a6.57,6.57,0,0,0,2.19-.4,4,4,0,0,0,2.23-2.23,6.57,6.57,0,0,0,.4-2.19c.06-1.24.07-1.61.07-4.75S30.12,17,30.06,15.73Zm-9.57,10.8a6,6,0,1,1,6-6A6,6,0,0,1,20.49,26.53Zm6.28-10.91a1.41,1.41,0,1,1,1.41-1.41A1.41,1.41,0,0,1,26.77,15.62Z"/></g></g></svg>