<?xml version="1.0" encoding="utf-8"?>
<!-- Generator: Adobe Illustrator 18.0.0, SVG Export Plug-In . SVG Version: 6.00 Build 0)  -->
<!DOCTYPE svg PUBLIC "-//W3C//DTD SVG 1.1//EN" "http://www.w3.org/Graphics/SVG/1.1/DTD/svg11.dtd">
<svg version="1.1" id="Layer_2" xmlns="http://www.w3.org/2000/svg" xmlns:xlink="http://www.w3.org/1999/xlink" x="0px" y="0px"
	 viewBox="0 0 330.3 133.9" enable-background="new 0 0 330.3 133.9" xml:space="preserve">
<g opacity="0.38">
	<g>
		<defs>
			<rect id="SVGID_13_" x="0" y="0" width="325" height="132.5"/>
		</defs>
		<clipPath id="SVGID_1_">
			<use xlink:href="#SVGID_13_"  overflow="visible"/>
		</clipPath>
		<path clip-path="url(#SVGID_1_)" fill="#616160" d="M54.1,68.1c-0.7,0.8-0.7,1.6,0,2.4v-1.7c0,0.3,0,0.6,0.1,0.9
			c0.1,0.3,0.1,0.6,0.1,0.8v2.8c0,0.1-0.1,0.2-0.2,0.2c0,0.6,0,1.1-0.1,1.5c-0.1,0.4-0.2,0.8-0.4,1.3h-0.2v0.3
			c0.1,0.1,0.2,0.2,0.2,0.3c0,0.1-0.1,0.1-0.3-0.2c0,0.2,0.1,0.3,0.4,0.3c0.3,0,0.4,0.1,0.4,0.2h-0.8c0,0.1,0.3,0.2,0.8,0.3
			c-0.5,0.3-0.7,0.7-0.4,1.2c0.3,0.5,0.4,0.9,0.4,1.3l-0.6-0.2c-0.1,0.2-0.1,0.5-0.1,0.9c0.1,0.4,0.1,0.8,0.1,1.3
			c0,0.2,0.1,0.6,0.3,1c0.2,0.5,0.1,0.6-0.3,0.4c-0.1,0.1-0.1,0.2-0.1,0.2c0.1,0.1,0,0.1-0.1,0.2c0.4,0.1,0.5,0.1,0.4-0.2
			c-0.2-0.2,0-0.2,0.5,0c-0.1,0-0.2,0.1-0.2,0.3h-0.6v0.9c0.1-0.1,0.2-0.2,0.3-0.2c0.2,0,0.3,0.1,0.3,0.2c-0.5,0.1-0.7,0.3-0.6,0.5
			c0.1,0.2,0.3,0.4,0.6,0.6l0.5-2c0.2-0.7,0.2-1.4,0-1.9c0,0.3-0.1,0.5-0.2,0.5c0-0.7-0.1-1.3-0.2-1.7h0.3c-0.4-0.4-0.5-0.8-0.2-1.1
			c0,0.1,0.1,0.2,0.2,0.2c-0.1-0.9-0.2-1.9-0.2-3v-3c0.1,1.6,0.2,3.2,0.2,4.8c0.1,1.6,0.1,3.2,0.1,4.6c1.4-3.5,2.6-7.1,3.8-10.8
			c1.2-3.7,2.4-7.4,3.8-11.1c2.4-7.2,4.8-14.4,7.3-21.5c2.5-7.1,5.2-13.9,8.3-20.5c0.8-1.7,1.7-3.3,2.5-5c0.8-1.6,1.7-3.2,2.7-4.6
			c0.8-1.5,1.7-2.8,2.7-4.1c0.9-1.3,2.3-2.3,3.9-3.1c0.5-0.3,1-0.7,1.5-1.2c0.5-0.5,1.1-0.8,1.8-0.9c0.6,0,1.4,0.1,2.2,0.3
			c2.9,0.2,5.5,0.9,7.6,2c2.1,1.2,3.6,2.6,4.5,4.4c0.8,1.3,1.3,2.6,1.4,4.1c0.1,0.7,0.2,1.5,0.3,2.2c0.1,0.7,0.2,1.5,0.2,2.2
			c-0.2,2.3-0.6,4.6-1.2,6.8c-0.6,2.2-1.1,4.5-1.5,6.8c-0.4,1.6-0.9,3.1-1.3,4.6c-0.5,1.5-1,3.2-1.5,5l-0.5,3.3
			c-0.2,1-0.4,2.1-0.6,3.1c-0.2,1-0.4,2-0.5,2.9c-0.1,0.3-0.1,0.6-0.1,0.9c0.1,0.3,0,0.7-0.1,1.1c-0.8,3.4-1.6,6.8-2.3,10.3
			c-0.7,3.5-1.3,6.7-1.8,9.7h-0.3c-0.3,1.4-0.5,2.8-0.5,4.3c0,1.5-0.1,2.9-0.2,4.2c0,0.8-0.1,1.7-0.3,2.6c-0.2,0.9-0.2,1.6,0,2.1
			c-0.2,0.1-0.3,0.3-0.3,0.6c-0.1,0.2-0.1,0.3,0.2,0.2c0.2-0.1,0.3-0.1,0.3,0c-0.1,0.9-0.1,1.8,0,2.7c0.1,0.8,0.1,1.7-0.2,2.5
			c0.1,0.2,0.1,0.2,0.1,0c-0.1-0.2,0-0.2,0.2,0c-0.1,0.9-0.2,1.8-0.2,2.7v2.5c0-0.1-0.1-0.2-0.2-0.2c-0.2,0.2-0.3,0.5-0.3,0.9
			c0,0.4-0.1,0.5-0.3,0.5c-0.3,0-0.4-0.2-0.2-0.6c-0.5,0.6-0.7,1.4-0.6,2.2c0.1,0.8,0.2,1.6,0.2,2.2v1c0,0.3,0.1,0.5,0.3,0.7
			c-0.3,0.2-0.4,0.4-0.2,0.7c0.2,0.3,0.3,0.5,0.4,0.7c-0.1-0.2-0.2,0-0.2,0.5v1.2c0,0.6,0.1,1.3,0.2,2c0.1,0.7,0.2,1.2,0.2,1.6
			c0,0.2,0,0.3-0.1,0.2c-0.1,0-0.1,0-0.1,0.1c-0.1,0.1-0.1,0.1,0.1,0.1c0.2-0.1,0.2,0,0.1,0.2l-0.2,0.3v0.2c0.2,0.9,0.5,1.9,0.8,3
			c0.3,1,0.7,2.1,1.1,3.1l-1.3-2h0.2c0-0.3-0.1-0.6-0.2-0.9c-0.2-0.3-0.2-0.6-0.2-0.9c-0.2,0.1-0.3,0-0.4-0.4
			c-0.1-0.4-0.2-0.7-0.4-0.9c0.3,1.6,0.7,3.1,1.3,4.5c0.5,1.4,1,2.8,1.6,4.3c0-0.5-0.1-1-0.2-1.3c-0.1-0.4-0.2-0.8-0.2-1.2
			c0.5,0.9,0.7,1.8,0.6,2.7c-0.1,0.8,0.3,1.6,1.1,2.4v0.6c0,0.3,0.1,0.3,0.2,0.2c0.1-0.1,0.2-0.1,0.2,0.1v-0.1
			c0.2-0.2,0.3-0.1,0.3,0.2c0,0.4,0.1,0.6,0.3,0.7c0.2-0.5,0.2-1,0-1.3c-0.2-0.4-0.4-0.8-0.5-1.3l-0.9-2.2c0.4,0.2,0.7,0.7,0.8,1.5
			c0.1,0.8,0.4,1.2,0.9,1.3c0.1,0.2,0.1,0.4,0,0.5c-0.1,0.1-0.1,0.3,0.2,0.5c0.2,0,0.2-0.1,0.1-0.2c-0.2-0.1-0.2-0.2-0.1-0.2
			c0.3,0.2,0.4,0.3,0.2,0.4c-0.2,0.1-0.2,0.2-0.2,0.6c0.2-0.2,0.4-0.2,0.7,0.2c0.3,0.3,0.3,0.4,0.1,0.3c-0.1-0.2-0.3-0.3-0.5-0.2
			c-0.2,0.1-0.4,0.2-0.5,0.3c0,0.3,0.1,0.6,0.4,0.9c0.3,0.3,0.3,0.6,0.1,0.8c0.1,0.1,0.2,0.2,0.3,0.2c0.1,0,0.2,0.1,0.2,0.3
			c-0.6,0.2-1.3,0.3-2,0.3c-0.7,0-1.1,0.5-1.1,1.4c-0.3,0.2-0.6,0.5-0.8,0.9c-0.2,0.4-0.4,0.8-0.5,1.3s-0.3,0.8-0.5,1.3
			c-0.1,0.4-0.2,0.7-0.4,0.9c-0.2,0.2-0.3,0.3-0.4,0.5c-0.2,0-0.4,0-0.7,0.1c-0.3,0-0.5,0-0.9-0.2c-0.1-0.1-0.2-0.2-0.3-0.4
			c-0.1-0.2-0.3-0.3-0.6-0.6c-0.5-0.2-0.9-0.4-1.1-0.5c-0.2-0.2-0.5-0.4-0.8-0.7c-1.3-1.5-2.3-3.4-3.2-5.7c-0.9-2.4-1.7-4.5-2.4-6.5
			c-0.6-2.2-1.1-4.4-1.5-6.4c-0.4-2.1-0.7-4.3-0.9-6.6c-0.6-4.6-1-9.3-1.2-14.1c-0.2-4.8-0.1-9.7,0.1-14.7
			c0.4-6.3,1.2-12.7,2.2-19.3c1-6.6,2.1-12.9,3.3-19c0.2-0.8,0.4-1.6,0.5-2.3c0.1-0.7,0.3-1.4,0.6-2.3c0.4-1.9,0.9-3.9,1.5-6.1
			c0.6-2.1,1-4.3,1.4-6.4s0.6-4.2,0.7-6.3c0.1-2-0.2-3.9-0.8-5.4c-0.6,0.2-1.2,0.7-1.6,1.3c-0.4,0.7-0.9,1.4-1.4,2.1
			c-0.8,1.2-1.8,2.4-2.8,3.8c-1,1.4-1.8,2.8-2.3,4.2c-0.8,2.1-1.6,4.2-2.4,6.4c-0.7,2.2-1.7,4.3-2.8,6.4c-0.9,2-1.9,4-2.8,6
			c-0.9,2-1.7,4.1-2.3,6.4c-0.5,1.2-0.9,2.3-1.2,3.4c-0.3,1.1-0.5,2.3-0.9,3.5c-0.4,1.2-0.8,2.3-1.2,3.5c-0.4,1.2-0.7,2.3-0.9,3.5
			c-0.3,0.6-0.6,1.3-0.7,1.9c-0.2,0.6-0.3,1.3-0.5,2c-0.2,0.7-0.4,1.4-0.6,2c-0.2,0.6-0.4,1.3-0.6,1.9c-0.4,1.6-0.9,3.1-1.6,4.6
			c-0.6,1.5-1.2,3.1-1.6,4.9c-0.2,1.2-0.4,2.3-0.5,3.5c-0.1,1.2-0.3,2.4-0.5,3.5c-0.3,1.2-0.8,2.5-1.4,3.9c-0.6,1.5-1.2,2.9-1.7,4.4
			c-0.8,2.4-1.9,4.4-3.1,5.9c-1.2,1.5-3.1,2.5-5.7,3.1c-0.5,0.1-1.1,0.2-1.7,0.2c-0.6,0.1-1,0.1-1.2,0.1c-0.6,0-1.2-0.1-1.6-0.4
			c-0.4-0.3-0.9-0.6-1.4-1c-0.9,0.1-1.6-0.4-2-1.4c0-0.2,0.1-0.2,0.2,0c0.1,0.2,0.2,0.2,0.2-0.2c0-0.2,0-0.3-0.1-0.2
			c-0.1,0.1-0.1,0.2-0.2,0.2c0.1-0.3-0.1-0.5-0.5-0.7c-0.4-0.2-0.8-0.4-1.1-0.7c-0.2-0.2-0.3-0.4-0.2-0.7c0-0.3,0-0.4-0.2-0.5
			c-0.4-2.3-0.7-4.7-0.9-7.2c-0.2-2.5-0.4-5-0.6-7.6c-0.2-3.7-0.3-7.4-0.3-11.2c0-3.8,0.2-7.7,0.5-11.8V54c0-1.3,0.1-2.6,0.2-3.9
			c0.3-3.8,0.8-7.6,1.5-11.6c0.7-3.9,1.1-7.8,1.3-11.7c0.2-1,0.3-2.1,0.4-3.2c0-1.1,0.1-2.1,0.1-3.1c0-1.5,0.1-3.1,0.3-4.9
			c0.2-1.8-0.2-3.2-1.1-4.4c-1,0.5-2,1.3-2.8,2.3c-0.8,1-1.4,2-2,3.1c-1.1,2.3-2.2,4.6-3.5,6.8c-1.3,2.2-2.3,4.6-3.1,7.1l-1.1,3.9
			l-1.3,3.8c-0.2,0.3-0.3,0.6-0.2,0.9c0.1,0.3,0.1,0.6-0.2,0.8L27.5,42v1.9c-0.3,1.7-0.7,3.4-1.3,5c-0.5,1.7-0.9,3.4-1.3,5.2
			c-0.2,0.3-0.3,0.7-0.3,1.3c-0.7,2-1.3,3.9-1.6,5.8c-0.5,1.6-0.9,3.1-1,4.5c-0.2,1.4-0.3,2.9-0.5,4.5c-0.5,2.7-1,5.4-1.3,8
			c-0.4,2.6-0.7,5.2-0.9,7.7c-0.2,1-0.3,2.1-0.2,3.1c0.1,1,0.2,2,0.2,3c-0.2,1.8-0.5,3.5-0.9,5c-0.4,1.6-0.6,3.1-0.6,4.7
			c0,0.3,0,0.6,0.1,0.9c0.1,0.3,0.1,0.5,0.1,0.7c0.1,0.3,0.1,0.6,0,0.9c-0.1,0.3-0.1,0.5,0.2,0.7c-0.5,0.6-0.7,1.3-0.5,2
			c0.2,0.7,0.1,1.4-0.3,2c-0.1,0.4-0.2,0.7-0.4,0.9s-0.3,0.4-0.5,0.6c-0.4,0.6-0.8,1.2-1,1.7c-0.3,0.5-0.7,0.9-1.3,1.3
			c-0.5,0.4-1.1,0.8-1.8,1.3c-0.7,0.4-1.4,0.6-2.3,0.6c-0.2-0.1-0.4-0.2-0.7-0.4c-0.3-0.2-0.6-0.2-1-0.2c-0.9-0.8-1.7-1.8-2.3-2.9
			c-0.6-1.1-1.1-2.3-1.7-3.5c-1-2.6-1.7-5.4-2-8.5c-0.3-2.1-0.6-4.2-0.8-6.3c-0.2-2.1-0.4-4.1-0.5-6.1C0.7,82.3,0.5,77.1,0.2,72
			C0,66.8-0.1,61.3,0.1,55.7c0.4-6.1,1.1-12.5,2-19.2C3,29.8,4.2,23.6,5.6,17.9C6.1,16.5,6.5,15,7,13.6c0.5-1.4,0.8-2.9,0.9-4.5
			c0-0.8-0.1-1.7-0.4-2.7c-0.3-0.9-0.1-2,0.4-3.1c0.6-2.4,2.6-3.5,5.8-3.3c2.1,0.2,3.9,0.7,5.5,1.6c1.6,0.8,2.9,1.7,3.9,2.5l0.8,0.8
			c0.9,1.4,1.3,3,1.2,5c-0.2,1.9-0.5,4-1.2,6.1c-0.9,4.8-2.1,9.8-3.5,14.9c-0.4,2.2-0.8,4.4-1.1,6.6c-0.3,2.2-0.7,4.5-1.3,6.8
			c-0.6,2.7-1.1,5.4-1.3,8.1c-0.3,2.7-0.4,5.3-0.4,7.9c1.2-7,2.6-13.8,4.4-20.4c1.8-6.6,4-12.7,6.6-18.4c0.8-1.8,1.7-3.6,2.7-5.4
			c0.9-1.8,2-3.6,3.1-5.3c1.8-2.4,3.7-4.5,5.8-6.3c0.2-0.1,0.4-0.2,0.6-0.3C39.8,4,40,3.9,40.2,3.8c0.4-0.5,1.1-1,2-1.3
			C43.1,2.1,44,2,44.8,2.2c0.4,0.1,0.8,0.2,1,0.4c0.3,0.2,0.5,0.3,0.9,0.6c0.7,0.4,1.6,0.7,2.7,0.7c1.1,0.1,2.1,0.2,2.9,0.4
			c1.2,0.2,2.1,0.5,3,0.9c0.8,0.4,1.7,1,2.5,1.9c0.5,0.5,0.9,1.1,1.2,1.7c0.3,0.6,0.6,1.4,1,2.2c0.4,1.2,0.5,2.4,0.4,3.8
			c-0.2,1.4-0.3,2.9-0.4,4.7l-0.3,7.1c-0.2,2.8-0.5,5.8-0.9,8.8c-0.4,3-1.1,5.9-1.9,8.6c-0.2,1.2-0.3,2.4-0.4,3.9
			c-0.1,1.4-0.3,2.5-0.7,3.4c0,0.8-0.1,2-0.2,3.5c-0.2,1.5-0.3,2.7-0.5,3.5c0-0.5,0-0.5,0.1,0.1c0.1,0.6,0,1-0.2,1.2l-0.5,3.1
			c0.1,0,0.2,0.2,0.2,0.5c0.1,0.3,0.1,0.7-0.1,1c-0.2,0.4-0.2,0.8-0.2,1.3v0.3c-0.1,0.1-0.2,0.2-0.2,0.3v2.2V68.1z M41.2,95.5v-0.8
			c-0.1,0.1-0.2,0.3-0.2,0.5C40.9,95.4,41,95.5,41.2,95.5 M41,93.3c0,0.5,0.1,0.8,0.2,0.8C41.2,93.7,41.1,93.5,41,93.3 M41.6,96.1
			v0.2c0.2,0,0.3,0,0.2,0.1c-0.1,0.1,0,0.1,0.2,0.1c0.1-0.1,0-0.2-0.2-0.3C41.7,96,41.6,96,41.6,96.1 M42.6,87.4
			c-0.1,0.1,0,0.2,0.3,0.3c0.3,0.1,0.5,0.1,0.5-0.2c-0.2,0-0.3,0-0.4-0.1C42.9,87.5,42.8,87.4,42.6,87.4 M42.6,97.2
			c0,0.2,0.1,0.3,0.3,0.3c0.2,0,0.4,0.1,0.5,0.2c-0.1-0.1-0.2-0.2-0.2-0.3C43.1,97.2,42.9,97.2,42.6,97.2 M43.4,97.8h-0.2
			c0.1,0.1,0.2,0.2,0.2,0.3c0.1,0.1,0.2,0.2,0.4,0.3c0.2-0.2,0.2-0.3-0.1-0.3C43.5,98.1,43.4,98,43.4,97.8 M44.2,98.6
			c-0.2,0-0.3,0.1-0.3,0.3l0.3,0.5V98.6z M46,84.5c0,0.5,0.2,0.8,0.6,0.8c0-0.2-0.1-0.3-0.2-0.4C46.3,84.8,46.2,84.7,46,84.5
			 M49,89.2l0.3,0.3C49.4,89.1,49.2,89,49,89.2 M49.5,89.6c0.2,0.2,0.5,0.4,0.8,0.5c0.3,0.2,0.5,0.3,0.6,0.6c-0.1,0-0.2,0.1-0.2,0.3
			c0.1,0,0.2,0.1,0.2,0.2c0.1,0.1,0.1,0.2,0.2,0.2c0-0.1,0-0.2,0.1-0.2c0.1,0,0.1-0.1,0.1-0.2c-0.2-0.2-0.5-0.5-0.8-0.8
			C50.3,90,49.9,89.7,49.5,89.6 M51.1,84.3v0.2V84.3z M51.2,85.1c0.1,0.1,0.2,0.3,0.2,0.5c0.1,0.2,0.2,0.3,0.4,0.3
			C51.6,85.3,51.3,85.1,51.2,85.1 M53,87.9c0.1-0.2,0.1-0.4-0.1-0.7c-0.2-0.3-0.3-0.5-0.5-0.9c0.2,0.3,0.3,0.6,0.3,0.9
			C52.6,87.5,52.8,87.7,53,87.9 M52.8,23.1v0.6c0-0.2,0.1-0.4,0.3-0.6C53,23,53,23,53,23.1C53,23.2,52.9,23.2,52.8,23.1 M53.4,76.1
			c0.1,0,0.1-0.1,0.1-0.2v-0.2V76c0-0.1,0.1-0.2,0.2-0.2c0.1,0,0.1-0.1-0.2-0.1c-0.1,0-0.2,0-0.2,0.2v0.5
			C53.3,76.2,53.3,76.1,53.4,76.1 M53.4,24.6c0.5-0.1,0.8-0.3,0.8-0.5c-0.1-0.1-0.3-0.1-0.5,0.1C53.4,24.3,53.3,24.4,53.4,24.6
			 M53.4,74.9v0.6c0-0.2,0.1-0.3,0.2-0.4C53.8,75,53.8,75,53.4,74.9 M53.6,76.3c0,0.1-0.1,0.2-0.2,0.3
			C53.9,76.4,53.9,76.3,53.6,76.3 M54.1,73.3v0.2C54.2,73.3,54.2,73.3,54.1,73.3 M54.4,74.1v-0.8h-0.2c0,0.1,0,0.2,0.1,0.3
			C54.4,73.7,54.4,73.9,54.4,74.1 M54.4,81.3c0.2,0.4,0.3,0.6,0.2,0.6C54.5,81.5,54.5,81.3,54.4,81.3 M55.2,52.5c0,0.3,0,0.7-0.1,1
			c-0.1,0.4,0,0.7,0.1,0.9c0-0.2,0.1-0.5,0.2-0.9C55.4,53.2,55.4,52.9,55.2,52.5 M55.5,48.8c0,0.2,0,0.4-0.1,0.5
			c-0.1,0.1-0.1,0.3-0.1,0.5c0-0.2,0.1-0.4,0.2-0.5C55.7,49,55.7,48.9,55.5,48.8 M94.9,99.1c0,0.8,0.1,1.5,0.2,1.9
			C95.1,100,95,99.4,94.9,99.1 M95.1,101.1c0,0.2,0,0.4-0.1,0.7c-0.1,0.3,0,0.5,0.1,0.7c0-0.3,0-0.6,0.1-0.8
			C95.2,101.5,95.2,101.3,95.1,101.1 M95.3,104.4c-0.1,0.2-0.1,0.5-0.1,1c0.1,0.5,0.2,0.7,0.4,0.6c-0.2-0.3-0.3-0.6-0.2-0.9
			C95.5,104.9,95.5,104.6,95.3,104.4"/>
		<path clip-path="url(#SVGID_1_)" fill="#616160" d="M135.3,40.3c1.6,0.2,3.2,0.5,4.8,0.9c1.6,0.4,3,1.2,4,2.4
			c0.5-0.4,1-0.5,1.6-0.3c0.3,0,0.5,0.1,0.7,0.2c0.2,0.2,0.3,0.2,0.5,0.2c0.3,0.1,0.7,0.2,1.1,0.2h1.1c1.3,0.2,2.4,0.7,3.5,1.5
			c1,0.8,1.7,1.8,2,2.9c0.4,1.3,0.6,2.8,0.5,4.7c-0.1,0.5-0.1,1-0.1,1.4c0.1,0.4,0,0.9-0.1,1.4c-0.1,0.5-0.2,1-0.4,1.4
			c-0.2,0.4-0.3,0.9-0.5,1.4l-0.5,2.4c-0.1,0.2-0.3,0.5-0.5,0.8c-0.2,0.3-0.3,0.7-0.3,1.1c-0.5,1.7-0.9,3.4-1.2,5.1
			c-0.3,1.7-0.7,3.5-1.2,5.3c-0.7,1.9-1.2,3.7-1.3,5.3c-0.3,1.9-0.5,3.8-0.5,5.7v3.1c0,0.9,0.1,1.9,0.2,2.9c1-0.5,1.8-1.3,2.1-2.2
			c0.4-0.9,0.9-1.9,1.6-3c0.5-0.6,1-1.2,1.4-1.8c0.4-0.6,0.7-1.1,0.9-1.6c0.8-1.6,1.7-2.8,2.5-3.8l1.7-3.9c0.9-2,1.9-3.9,3-5.8
			c1-1.9,2.2-3.7,3.5-5.5c0.6-1,1.3-2,2-2.8c0.7-0.8,1.5-1.6,2.4-2.4c0.2-0.2,0.3-0.2,0.2,0.1c-0.1,0.3,0,0.3,0.2,0.2
			c0.2,0.1,0.4,0,0.5-0.2c0.1-0.3,0.3-0.3,0.5-0.1c0.2,0.2,0.5,0.4,0.9,0.6c0.4,0.2,0.5,0.4,0.5,0.6c-0.4,0.5-0.8,1-1.3,1.5
			c-0.4,0.5-0.6,1-0.6,1.5c-0.4,0.2-0.7,0.5-0.8,0.9c-0.1,0.4-0.2,0.7-0.3,1c-0.3,0.5-0.7,1-1,1.4c-0.4,0.4-0.7,0.9-0.9,1.6
			c-0.1,0.1-0.2,0.3-0.2,0.6c-0.2,0.2-0.4,0.4-0.5,0.5c-0.2,0.2-0.2,0.3-0.2,0.6v0.6c-0.1,0.2-0.2,0.4-0.4,0.7
			c-0.2,0.3-0.3,0.5-0.4,0.7c-0.4,0.8-0.8,1.6-1,2.4c-0.3,0.8-0.6,1.6-1,2.4c-0.4,0.6-0.8,1.2-1.1,1.7c-0.3,0.5-0.5,1.1-0.6,1.7
			c-0.3,1-0.8,2-1.3,3c-0.6,0.9-1.1,1.8-1.7,2.7c-0.2,0.5-0.4,1-0.7,1.3c-0.3,0.4-0.4,0.7-0.5,0.9c-0.3,1.3-0.9,2.6-1.9,4.1
			c-0.3,0.5-0.7,1-1.1,1.4c-0.4,0.4-0.7,0.8-0.9,1.3c-0.7,0.9-1.6,1.8-2.5,2.5c-0.5,0.2-1,0.5-1.6,0.9c-0.5,0.4-1,0.7-1.6,0.9
			c-0.6,0.2-1.4,0.4-2.2,0.7c-0.8,0.3-1.7,0.3-2.5,0.1c-1.4-0.1-2.6-0.6-3.6-1.6l-2-2l-0.5-1.3l-0.6-1.4c-0.5-1.7-0.8-3.4-0.9-5.1
			c-0.1-1.7-0.1-3.5,0-5.3c0.3-1.8,0.6-3.5,0.9-5.2c0.3-1.7,0.5-3.3,0.6-4.9c-0.3,1.3-0.7,2.5-1.1,3.6c-0.4,1.2-0.8,2.3-1.3,3.5
			c-0.2,0.6-0.4,1.2-0.7,1.7c-0.3,0.5-0.5,1-0.9,1.6c-0.2,0.5-0.5,1-1,1.5c-0.5,0.5-0.8,1-1,1.5c-0.1,0.2-0.2,0.5-0.2,0.8
			c-0.1,0.2-0.3,0.4-0.5,0.7c-0.3,0.3-0.5,0.5-0.7,0.7c-0.8,2-2.1,3.3-3.8,3.9c-0.9,0.5-2,0.9-3.2,1c-1.2,0.2-2.4,0.4-3.5,0.7
			c-0.5,0.2-1,0.4-1.5,0.6c-0.5,0.2-1.1,0.2-2,0.1c-1.4-0.2-2.5-0.8-3.5-1.7c-1-0.9-1.6-1.9-2-2.8c-0.8-1.8-1.2-3.8-1.2-5.9
			c0.1-2.1,0.2-4.3,0.4-6.5c0.2-2.2,0.6-4.2,1-6.1c0.5-1.8,1-3.6,1.5-5.4c0.8-1.8,1.7-3.5,2.6-5.1c0.9-1.6,1.8-3.2,2.6-4.6
			c0.3-0.8,0.7-1.6,1.1-2.4c0.4-0.7,0.8-1.5,1.3-2.2c0.4-0.4,0.8-0.8,1.1-1c0.3-0.3,0.6-0.6,0.8-0.9l1.4-2.2l2.5-1.7
			c0.3-0.3,0.6-0.6,0.9-0.9c0.3-0.3,0.6-0.6,1-0.9c0.3-0.2,0.7-0.4,1.3-0.6c0.5-0.2,1-0.4,1.4-0.6c0.5-0.3,1-0.6,1.4-0.9
			c0.4-0.3,0.9-0.5,1.6-0.5c0.2-0.1,0.4-0.1,0.7,0c0.3,0.1,0.6,0.1,1,0V40.3z M124.5,80.7c1.2-1.8,2.2-3.6,3.2-5.3
			c1-1.8,1.9-3.6,2.7-5.5l4.4-8.6l4.1-8.6c0.2-0.5,0.4-1,0.7-1.5c0.3-0.5,0.4-0.9,0.5-1.3c0.1-0.4,0.1-1-0.1-1.6
			c-0.2-0.7-0.3-1.2-0.6-1.6c-0.2-0.2-0.5-0.4-0.9-0.7c-0.4-0.3-0.8-0.4-1.3-0.4c-0.8,0.1-1.4,0.3-1.8,0.7c-0.4,0.4-0.9,0.8-1.5,1.3
			l-1.6,1.7c-0.2,0.3-0.4,0.7-0.5,1c-0.1,0.4-0.3,0.8-0.5,1.2c-0.6,0.6-1,1.3-1.3,2c-0.2,0.4-0.3,0.8-0.4,1.3
			c-0.1,0.4-0.1,0.8-0.2,1.3c-0.2,0.4-0.4,0.8-0.7,1.2c-0.3,0.4-0.4,0.7-0.6,1c-0.2,0.5-0.3,1-0.4,1.6c-0.1,0.5-0.2,1-0.5,1.6
			c-0.1,0.8-0.4,1.7-0.8,2.7c-0.2,0.5-0.4,1-0.5,1.6c-0.1,0.5-0.3,1-0.5,1.6c-0.2,0.5-0.4,1-0.6,1.4c-0.2,0.4-0.4,0.9-0.5,1.4
			c-0.7,2.1-1.3,4.3-1.6,6.5c-0.3,2.3-0.4,4.6-0.2,7c0.3-0.3,0.6-0.7,0.8-1.2C123.9,81.7,124.2,81.2,124.5,80.7"/>
		<path clip-path="url(#SVGID_1_)" fill="#616160" d="M204.7,71.9c-0.9,1.5-1.8,3-2.7,4.7c-0.8,1.7-1.7,3.4-2.5,5
			c-0.8,1.8-1.8,3.4-2.8,4.9c-1,1.5-1.9,3.1-2.7,4.9c-0.2,0.8-0.5,1.7-0.9,2.6c-0.4,0.9-0.8,1.8-1.2,2.6c-0.2,0.9-0.5,1.9-0.9,2.7
			c-0.4,0.9-0.8,1.8-1.3,2.6c-0.4,0.8-0.8,1.7-1,2.7c-0.3,0.9-0.6,1.8-0.9,2.5c-0.8,1.9-1.8,3.6-2.8,5c-1,1.5-2.2,2.7-3.5,3.6
			c-0.6,0.6-1.6,1.1-2.8,1.5c-1.3,0.4-2.6,0.4-3.9,0.1c-1.5-0.5-2.8-1.3-3.9-2.2c-0.2-0.3-0.6-0.6-1-0.9c-0.5-0.3-0.8-0.7-1-1.1
			l-1.1-2.2l-2.7-6.8c-0.4-1.7-0.7-3.5-0.7-5.3c-0.1-1.9-0.2-3.7-0.4-5.5c-0.1-1.9-0.2-3.8-0.2-5.7v-5.7c0-1.8,0.1-3.6,0.3-5.3
			c0.2-1.8,0.4-3.6,0.6-5.3c0.1-2,0.3-3.9,0.5-5.8c0.3-1.9,0.7-3.7,1.2-5.5c0.3-1.9,0.6-3.7,0.9-5.6c0.3-1.8,0.7-3.6,1.2-5.4
			c0.2-0.9,0.4-2.1,0.6-3.5c0.2-1.4,0.5-2.6,0.9-3.5c0.5-2.5,1.4-5.5,2.5-8.9c1.2-3.4,2-6.4,2.7-8.9c-4.4,0-8.2,0.5-11.3,1.6
			c-0.2,0-0.4,0.1-0.5,0.2c-0.1,0.2-0.3,0.3-0.5,0.4l-2.4,0.3c-0.2,0.1-0.4,0.2-0.7,0.3c-0.3,0.1-0.6,0.2-1,0.3
			c-0.8,0.2-2,0.3-3.5,0.3c-1.5,0-2.6-0.1-3.5-0.2c-0.3-0.1-0.7-0.2-1-0.2c-0.4,0-0.7-0.2-1-0.4c0.2-1,0.6-1.8,1.2-2.4
			c0.6-0.5,1.2-1,1.8-1.4c1-0.4,2.1-0.8,3.1-1.2c1-0.4,2.1-0.7,3.2-0.9c1-0.3,2.1-0.6,3.2-0.9c1.1-0.3,2.2-0.6,3.4-0.8h1.9
			c1.5-0.2,3-0.3,4.6-0.4c1.6-0.1,3.2,0,4.9,0.1c0.8-1.5,1.4-2.6,1.8-3.5c0.4-0.8,0.9-2.1,1.6-3.8c0.2-0.5,0.5-1,0.8-1.6
			c0.3-0.5,0.6-1.1,0.8-1.7c0.2-0.8,0.4-1.3,0.5-1.5c0.2-0.2,0.6-0.4,1.3-0.9c0.7-0.4,1.6-0.7,2.5-0.7c0.9-0.1,1.9,0.1,2.8,0.4
			c0.9,0.3,1.8,0.7,2.5,1.2c0.7,0.5,1.3,1,1.6,1.5c0.6,0.9,0.8,1.7,0.6,2.4c-0.2,0.6-0.5,1.4-0.8,2.4c-0.1,0.5-0.2,0.9-0.4,1.3
			c-0.2,0.3-0.3,0.6-0.5,0.9c-0.2,0.6-0.2,0.8-0.1,0.6c0.2-0.2,0.1,0-0.1,0.6l-1.1,3.1c1.8,0.5,3.7,0.8,5.7,0.9
			c2,0.1,4.1,0.2,6.3,0.4c2.3,0,4.6,0,6.8,0.1c2.2,0.1,4.5-0.1,6.9-0.4c0.8-0.1,1.7-0.2,2.7-0.3c0.9-0.1,1.8-0.2,2.7-0.2
			c0.2,0.2,0.2,0.4,0.1,0.6c-0.2,0.2-0.2,0.4-0.2,0.6c0.1,0.2,0.3,0.3,0.5,0.2c0.2-0.1,0.3,0,0.3,0.2C223,22,223,22,222.9,22
			c-0.1,0-0.2,0.1-0.2,0.3c-0.2,0.5-0.3,0.9-0.4,1.2c-0.1,0.3-0.2,0.5-0.5,0.9c-0.7,0.5-1.8,0.9-3.1,1c-1.4,0.2-2.8,0.3-4.2,0.4
			c-0.5,0.2-1.2,0.3-1.9,0.2c-0.7-0.1-1.5-0.2-2.2-0.2s-1.4,0.1-2.1,0.2c-0.7,0.2-1.3,0.2-1.8,0.2c-0.7,0-1.5,0-2.2-0.1
			c-0.7-0.1-1.4-0.1-1.9-0.1c-0.9,0-1.8,0-2.4,0.1c-0.7,0.1-1.4,0-2.3-0.1c-1.6-0.2-3-0.4-4.4-0.7c-1.4-0.3-2.7-0.3-3.9-0.2
			c-0.4,0.8-0.7,1.7-0.9,2.5s-0.4,1.7-0.6,2.5c-0.1,0.4-0.3,0.8-0.5,1.3l-0.6,1.3c-0.1,0.5-0.3,1.4-0.5,2.6c-0.2,1.2-0.4,2-0.6,2.4
			c-0.4,1.4-0.9,2.9-1.5,4.6c-0.6,1.7-1,3.3-1.2,4.8c0,0.6-0.1,1.3-0.2,2c-0.1,0.7-0.2,1.4-0.3,2.1c-0.2,0.7-0.3,1.4-0.4,2.1
			c-0.1,0.7-0.2,1.4-0.4,2.3c-0.1,0.6-0.2,1.3-0.4,1.9c-0.2,0.6-0.3,1.3-0.6,2c-0.5,2.1-0.9,4.2-1.2,6.2c-0.3,2-0.4,4-0.5,5.7
			c-0.2,1.6-0.4,3.1-0.5,4.6c-0.2,1.5-0.3,3-0.4,4.6c-0.1,4.4,0.1,8.7,0.5,12.9c0.1,2.1,0.3,4.1,0.5,6c0.2,1.9,0.8,3.7,1.7,5.3
			c0,0.2-0.1,0.3-0.2,0.2c-0.1-0.1-0.2,0-0.2,0.1c0.2,0.4,0.4,0.8,0.5,1.1c0.1,0.3,0.2,0.6,0.3,0.9c-0.1,0-0.2-0.1-0.2-0.2
			c0-0.1-0.1-0.2-0.2-0.2c-0.1,0.1-0.2,0.3-0.2,0.5s0.1,0.4,0.3,0.5c-0.1,0.1-0.2,0.1-0.2,0c-0.1-0.1-0.1-0.1-0.2,0
			c0,0.1,0.1,0.2,0.2,0.3c0.2,0.1,0.3,0.2,0.4,0.3c0.2,0,0.3-0.1,0.2-0.3c-0.1-0.2,0.1-0.3,0.5-0.2c0.2-0.5,0.4-1,0.6-1.6
			c0.2-0.5,0.5-1.1,0.8-1.7c0.6-0.7,1.1-1.6,1.4-2.7c0.2-0.4,0.4-0.9,0.7-1.3c0.3-0.5,0.5-1,0.7-1.5c0.2-0.5,0.5-1,0.9-1.4
			c0.4-0.4,0.7-0.9,0.9-1.4c0.8-1.8,1.6-3.6,2.4-5.5c0.7-1.9,1.6-3.8,2.5-5.7l3-5.3c0.8-2,1.7-3.9,2.6-5.7c0.9-1.8,1.9-3.6,3.1-5.3
			c2.2-3.5,4.6-6.5,7.2-9.1c-0.2,0.4-0.4,0.9-0.5,1.4c-0.2,0.5-0.3,1-0.5,1.4c0.1,0.3,0.3,0.5,0.6,0.7c0.3,0.2,0.5,0.3,0.5,0.5
			c0.1,0.3,0.1,0.7-0.2,1c-0.2,0.4-0.4,0.8-0.5,1.2c-0.5,0.8-1,1.8-1.6,3c-0.5,1.2-1.1,2-1.6,2.7L204.7,71.9z M204.2,71.6
			c-0.1,0.1,0,0.2,0.3,0.2C204.3,71.7,204.2,71.7,204.2,71.6"/>
		<path clip-path="url(#SVGID_1_)" fill="#616160" d="M210.8,90.9c2.4-0.6,4.6-1.7,6.4-3.2c1.9-1.5,3.4-3.1,4.6-4.6
			c2.1-2.7,4.4-5.4,7-7.9c2.6-2.6,4.6-5.2,6.1-7.9c0.8-0.9,1.9-2.3,3.1-4.1c1.3-1.8,2.4-3.1,3.5-3.9c0.2-0.2,0.3-0.2,0.3,0
			c0,0.2,0.1,0.4,0.3,0.6c-0.1,0.1-0.1,0.2,0,0.2l0.2,0.2v-0.3c0.2-0.1,0.5-0.2,0.9-0.2c0.4-0.1,0.6,0,0.5,0.2
			c0.1,0.2,0.1,0.4,0.1,0.6c-0.1,0.2,0,0.3,0.2,0.5c-0.2,0.6-0.7,1.5-1.5,2.6c-0.8,1.1-1.7,2.2-2.6,3.5c-0.9,1.2-1.8,2.4-2.6,3.5
			c-0.8,1.1-1.2,2-1.2,2.6c0,0.6-0.5,1.3-1.4,1.9c0,0.4-0.3,0.9-0.8,1.6c-0.3,0.7-0.9,1.4-1.7,2c-0.8,0.6-1.5,1.2-1.9,2
			c-0.8,2-1.9,3.8-3.1,5.5c-1.3,1.7-2.6,3.4-4.1,5c-1.2,1.2-2.3,2.3-3.4,3.5c-1.1,1.2-2.5,2.2-4.3,3.1c-1.4,0.3-2.6,0.7-3.7,1.2
			c-1.1,0.5-2.4,0.7-3.8,0.5c-1.8,0.1-3.3-0.3-4.6-1.3c-1.3-1-2.4-2-3.2-3.1c-0.9-1.5-1.6-3.4-2-5.9c-0.4-2.5-0.5-4.8-0.4-7
			c0-1.8,0.1-3.5,0.2-5.3c0.1-1.7,0.3-3.3,0.6-4.8c0.5-4.7,1.7-9,3.5-12.9c1.8-3.9,4-7.4,6.5-10.5c1.4-1.6,2.6-3,3.9-4.4
			c1.2-1.4,2.6-2.6,4.2-3.8l1.9-1.3c0.5-0.2,0.9-0.4,1.1-0.6c0.2-0.2,0.4-0.3,0.6-0.3c0.5-0.1,0.8-0.1,0.9-0.1
			c0.1,0.1,0.2,0.1,0.4,0.1c0.2-0.2,0.4-0.3,0.6-0.2c0.2,0.1,0.4,0.1,0.6,0.1c2.2,0.4,4,1.2,5.5,2.2c0.5,0.4,0.9,0.8,1.3,1.3
			c0.3,0.4,0.5,1.2,0.5,2.2c0.3,2.6,0,5.1-1,7.4c-1,2.3-2.2,4.3-3.7,6c-0.7,0.7-1.4,1.4-2,2.1c-0.6,0.7-1.2,1.4-1.8,2.3
			c-0.8,0.7-1.7,1.5-2.5,2.3c-0.8,0.8-1.8,1.2-3,1.3l-1.6,0.3c-0.5,0.2-0.9,0.6-1.1,1c-0.2,0.5-0.4,0.9-0.6,1.3
			c-1,2.6-1.9,5.8-2.5,9.6c-0.3,2.4-0.4,4.7-0.4,6.8c0.1,2.1,0.5,4.2,1.3,6.3L210.8,90.9z M215.7,60.2c0.8,0,1.6-0.3,2.2-0.8
			c0.6-0.5,1.2-1,1.6-1.4c1.3-1.5,2.7-3.1,4.3-4.9c1.6-1.8,2.5-3.7,2.7-5.7c0.1-0.5,0.2-1.1,0.2-1.7c0.1-0.6,0-1.2-0.2-1.6
			c-0.2-0.5-0.8-0.8-1.9-0.8c-1,0-1.7,0.1-1.9,0.3c-0.5,0.3-0.9,0.8-1,1.4c-0.2,0.6-0.3,1.2-0.5,1.6c-0.2,0.5-0.4,1-0.7,1.4
			c-0.3,0.4-0.5,0.9-0.7,1.4c-0.2,0.5-0.4,1-0.5,1.4c-0.1,0.4-0.3,0.9-0.5,1.4c-0.3,0.3-0.6,0.7-0.7,1.2c-0.2,0.5-0.3,1-0.6,1.5
			c-0.6,0.6-1,1.3-1.3,2c-0.2,0.7-0.5,1.4-0.8,2.3c0,0.2-0.1,0.4-0.2,0.6c-0.2,0.2-0.1,0.3,0.1,0.4H215.7z M242.1,59.8v0.2
			c0-0.1,0.1-0.2,0.2-0.2H242.1z M242.4,59.6l-0.2,0.2C242.1,59.4,242.1,59.3,242.4,59.6"/>
		<path clip-path="url(#SVGID_1_)" fill="#616160" d="M257.8,40.3c1.6,0.2,3.2,0.5,4.8,0.9c1.6,0.4,3,1.2,4,2.4
			c0.5-0.4,1-0.5,1.6-0.3c0.3,0,0.5,0.1,0.7,0.2c0.2,0.2,0.3,0.2,0.5,0.2c0.3,0.1,0.7,0.2,1.1,0.2h1.1c1.3,0.2,2.4,0.7,3.5,1.5
			c1,0.8,1.7,1.8,2,2.9c0.4,1.3,0.6,2.8,0.5,4.7c-0.1,0.5-0.1,1-0.1,1.4c0.1,0.4,0,0.9-0.1,1.4c-0.1,0.5-0.2,1-0.4,1.4
			c-0.2,0.4-0.3,0.9-0.5,1.4l-0.5,2.4c-0.1,0.2-0.3,0.5-0.5,0.8c-0.2,0.3-0.3,0.7-0.3,1.1c-0.5,1.7-0.9,3.4-1.2,5.1
			c-0.3,1.7-0.7,3.5-1.2,5.3c-0.7,1.9-1.2,3.7-1.3,5.3c-0.3,1.9-0.5,3.8-0.5,5.7v3.1c0,0.9,0.1,1.9,0.2,2.9c1-0.5,1.8-1.3,2.1-2.2
			c0.4-0.9,0.9-1.9,1.6-3c0.5-0.6,1-1.2,1.4-1.8c0.4-0.6,0.7-1.1,0.9-1.6c0.8-1.6,1.7-2.8,2.5-3.8l1.7-3.9c0.9-2,1.9-3.9,3-5.8
			c1-1.9,2.2-3.7,3.5-5.5c0.6-1,1.3-2,2-2.8c0.7-0.8,1.5-1.6,2.4-2.4c0.2-0.2,0.3-0.2,0.2,0.1c-0.1,0.3,0,0.3,0.2,0.2
			c0.2,0.1,0.4,0,0.5-0.2c0.1-0.3,0.3-0.3,0.5-0.1c0.2,0.2,0.5,0.4,0.9,0.6c0.4,0.2,0.5,0.4,0.5,0.6c-0.4,0.5-0.8,1-1.3,1.5
			c-0.4,0.5-0.6,1-0.6,1.5c-0.4,0.2-0.7,0.5-0.8,0.9c-0.1,0.4-0.2,0.7-0.3,1c-0.3,0.5-0.7,1-1,1.4c-0.4,0.4-0.7,0.9-0.9,1.6
			c-0.1,0.1-0.2,0.3-0.2,0.6c-0.2,0.2-0.4,0.4-0.5,0.5c-0.2,0.2-0.2,0.3-0.2,0.6v0.6c-0.1,0.2-0.2,0.4-0.4,0.7
			c-0.2,0.3-0.3,0.5-0.4,0.7c-0.4,0.8-0.8,1.6-1,2.4c-0.3,0.8-0.6,1.6-1,2.4c-0.4,0.6-0.8,1.2-1.1,1.7c-0.3,0.5-0.5,1.1-0.6,1.7
			c-0.3,1-0.8,2-1.3,3c-0.6,0.9-1.1,1.8-1.7,2.7c-0.2,0.5-0.4,1-0.7,1.3c-0.3,0.4-0.4,0.7-0.5,0.9c-0.3,1.3-0.9,2.6-1.9,4.1
			c-0.3,0.5-0.7,1-1.1,1.4c-0.4,0.4-0.7,0.8-0.9,1.3c-0.7,0.9-1.6,1.8-2.5,2.5c-0.5,0.2-1,0.5-1.6,0.9c-0.5,0.4-1,0.7-1.6,0.9
			c-0.6,0.2-1.4,0.4-2.2,0.7c-0.8,0.3-1.7,0.3-2.5,0.1c-1.4-0.1-2.6-0.6-3.6-1.6l-2-2l-0.5-1.3l-0.6-1.4c-0.5-1.7-0.8-3.4-0.9-5.1
			c-0.1-1.7-0.1-3.5,0-5.3c0.3-1.8,0.6-3.5,0.9-5.2c0.3-1.7,0.5-3.3,0.6-4.9c-0.3,1.3-0.7,2.5-1.1,3.6c-0.4,1.2-0.8,2.3-1.3,3.5
			c-0.2,0.6-0.4,1.2-0.7,1.7c-0.3,0.5-0.5,1-0.9,1.6c-0.2,0.5-0.5,1-1,1.5c-0.5,0.5-0.8,1-1,1.5c-0.1,0.2-0.2,0.5-0.2,0.8
			c-0.1,0.2-0.3,0.4-0.5,0.7c-0.3,0.3-0.5,0.5-0.7,0.7c-0.8,2-2.1,3.3-3.8,3.9c-0.9,0.5-2,0.9-3.2,1c-1.2,0.2-2.4,0.4-3.5,0.7
			c-0.5,0.2-1,0.4-1.5,0.6c-0.5,0.2-1.1,0.2-2,0.1c-1.4-0.2-2.5-0.8-3.5-1.7c-1-0.9-1.6-1.9-2-2.8c-0.8-1.8-1.2-3.8-1.2-5.9
			c0.1-2.1,0.2-4.3,0.4-6.5c0.2-2.2,0.6-4.2,1-6.1c0.5-1.8,1-3.6,1.5-5.4c0.8-1.8,1.7-3.5,2.6-5.1c0.9-1.6,1.8-3.2,2.6-4.6
			c0.3-0.8,0.7-1.6,1.1-2.4c0.4-0.7,0.8-1.5,1.3-2.2c0.4-0.4,0.8-0.8,1.1-1c0.3-0.3,0.6-0.6,0.8-0.9l1.4-2.2l2.5-1.7
			c0.3-0.3,0.6-0.6,0.9-0.9c0.3-0.3,0.6-0.6,1-0.9c0.3-0.2,0.7-0.4,1.3-0.6c0.5-0.2,1-0.4,1.4-0.6c0.5-0.3,1-0.6,1.4-0.9
			c0.4-0.3,0.9-0.5,1.6-0.5c0.2-0.1,0.4-0.1,0.7,0c0.3,0.1,0.6,0.1,1,0V40.3z M247,80.7c1.2-1.8,2.2-3.6,3.2-5.3
			c1-1.8,1.9-3.6,2.7-5.5l4.4-8.6l4.1-8.6c0.2-0.5,0.4-1,0.7-1.5c0.3-0.5,0.4-0.9,0.5-1.3c0.1-0.4,0.1-1-0.1-1.6
			c-0.2-0.7-0.3-1.2-0.6-1.6c-0.2-0.2-0.5-0.4-0.9-0.7c-0.4-0.3-0.8-0.4-1.3-0.4c-0.8,0.1-1.4,0.3-1.8,0.7c-0.4,0.4-0.9,0.8-1.5,1.3
			l-1.6,1.7c-0.2,0.3-0.4,0.7-0.5,1c-0.1,0.4-0.3,0.8-0.5,1.2c-0.6,0.6-1,1.3-1.3,2c-0.2,0.4-0.3,0.8-0.4,1.3
			c-0.1,0.4-0.1,0.8-0.2,1.3c-0.2,0.4-0.4,0.8-0.7,1.2c-0.3,0.4-0.4,0.7-0.6,1c-0.2,0.5-0.3,1-0.4,1.6c-0.1,0.5-0.2,1-0.5,1.6
			c-0.1,0.8-0.4,1.7-0.8,2.7c-0.2,0.5-0.4,1-0.5,1.6c-0.1,0.5-0.3,1-0.5,1.6c-0.2,0.5-0.4,1-0.6,1.4c-0.2,0.4-0.4,0.9-0.5,1.4
			c-0.7,2.1-1.3,4.3-1.6,6.5c-0.3,2.3-0.4,4.6-0.2,7c0.3-0.3,0.6-0.7,0.8-1.2C246.4,81.7,246.7,81.2,247,80.7"/>
		<path clip-path="url(#SVGID_1_)" fill="#616160" d="M289.4,48.8c0.4-1,0.8-2.1,1.1-3.1c0.3-1,0.8-1.9,1.6-2.7
			c0.3-0.2,0.6-0.4,0.9-0.5c0.3-0.1,0.5-0.3,0.7-0.5c0.5,0.2,1.3,0.3,2.4,0.2c1-0.1,1.9-0.2,2.5-0.2c1.6,0.3,2.8,1,3.7,2
			c0.9,1,1.1,2.4,0.5,4.1c-0.4,1.7-1,3.3-1.8,4.9c-0.8,1.6-1.3,3.3-1.5,5.2c1-2.3,2.2-4.5,3.4-6.5c1.2-2,2.6-4,4.2-5.9
			c0.9-1,2.1-2.2,3.6-3.4c1.5-1.2,3-2.2,4.7-2.9c0.4-0.2,1-0.4,1.8-0.5c0.8-0.1,1.3-0.2,1.7-0.2c0.4,0,0.6,0,0.6-0.1
			c0-0.1,0.2,0,0.6,0.2c0.5,0.2,0.7,0.3,0.6,0.4c-0.1,0.1,0.2,0.2,0.9,0.4c1.5,0.3,2.5,1.2,3,2.6c0.5,1.4,0.5,3,0,4.8
			c-0.1,0.6-0.4,1.4-0.9,2.2c-0.5,0.8-0.8,1.8-1,2.8c-0.4,0.8-0.8,1.7-1.2,2.5c-0.4,0.8-0.8,1.5-1.3,1.9c-0.2,0.2-0.3,0.4-0.2,0.5
			c0.1,0.2,0.1,0.3,0,0.6c-0.3,0.3-0.4,0.5-0.3,0.7c0.1,0.2-0.1,0.4-0.6,0.7c-0.2,0.5-0.3,0.8-0.4,0.7c-0.1-0.1-0.2,0-0.5,0.2
			c-0.4,0.2-0.8,0.4-1.2,0.5c-0.4,0.2-0.7,0.1-1-0.1c-0.5-0.2-1.4-0.5-2.5-1c-1.2-0.5-1.8-1-1.9-1.7c0-0.4-0.1-0.8-0.4-1
			c-0.3-0.3-0.4-0.6-0.5-0.9l0.5-1.7c0.2-1.3,0.5-2.5,0.9-3.7c0.4-1.2,0.8-2.4,1.3-3.5c-2.1,1.5-4,3.3-5.7,5.3
			c-1.7,2.1-3.1,4.4-4.4,6.8c-0.7,1.2-1.2,1.9-1.4,2.2c-0.2,0.3-0.3,0.6-0.4,0.8c-0.1,0.2-0.1,0.5-0.2,1c-0.1,0.5-0.4,1.4-0.9,2.8
			c0,0.3-0.1,0.4-0.2,0.4c-0.1,0-0.2,0-0.2,0.2c-0.2,1.2-0.4,2.3-0.5,3.4c-0.1,1.1-0.4,2.2-0.9,3.2c-0.5,1.6-0.8,3.1-0.8,4.7
			c0,1.6-0.1,3.2-0.2,4.9c-0.4,1.7-0.7,3.4-0.9,5.1c-0.2,1.7-0.1,3.3,0.1,4.8c-0.3,0-0.5,0.1-0.5,0.2c-0.2,0.2-0.3,0.4-0.3,0.6
			c0,0.2-0.1,0.3-0.2,0.5c0,0.2-0.1,0.3-0.4,0.2c-0.3-0.1-0.5,0-0.7,0.1v0.2l-0.2,0.3c-0.1,0-0.2,0-0.2,0.1c0,0.1-0.1,0.1-0.2,0.1
			l-0.2,0.2l-0.6,0.9c-0.2,0.3-0.7,0.6-1.5,0.9c-0.8,0.3-1.4,0.4-2,0.6c-0.8,0.1-1.4-0.1-1.8-0.6c-0.4-0.5-1-0.6-1.8-0.5
			c-0.8-0.8-1.4-1.8-1.6-3c-0.2-1.2-0.5-2.5-0.8-4.1c-0.4-3-0.5-6.4-0.2-10c0.3-3.6,0.7-7.3,1.3-10.9c0.4-2.5,0.7-4.5,0.9-6.1
			c0.2-1.5,0.3-2.9,0.6-4.1c0.2-1.2,0.5-2.4,0.9-3.7c0.4-1.3,1-2.9,1.8-5c0-0.2,0-0.5-0.1-0.8c-0.1-0.3,0-0.5,0.2-0.6V48.8z"/>
	</g>
</g>
<path fill="#FFFFFD" d="M59.3,69.5c-0.7,0.8-0.7,1.6,0,2.4v-1.7c0,0.3,0,0.6,0.1,0.9c0.1,0.3,0.1,0.6,0.1,0.8v2.8
	c0,0.1-0.1,0.2-0.2,0.2c0,0.6,0,1.1-0.1,1.5c-0.1,0.4-0.2,0.8-0.4,1.3h-0.2V78c0.1,0.1,0.2,0.2,0.2,0.3c0,0.1-0.1,0.1-0.3-0.2
	c0,0.2,0.1,0.3,0.4,0.3c0.3,0,0.4,0.1,0.4,0.2h-0.8c0,0.1,0.3,0.2,0.8,0.3c-0.5,0.3-0.7,0.7-0.4,1.2c0.3,0.5,0.4,0.9,0.4,1.3
	l-0.6-0.2c-0.1,0.2-0.1,0.5-0.1,0.9c0.1,0.4,0.1,0.8,0.1,1.3c0,0.2,0.1,0.6,0.3,1c0.2,0.5,0.1,0.6-0.3,0.4c-0.1,0.1-0.1,0.2-0.1,0.2
	c0.1,0.1,0,0.1-0.1,0.2c0.4,0.1,0.5,0.1,0.4-0.2c-0.2-0.2,0-0.2,0.5,0c-0.1,0-0.2,0.1-0.2,0.3h-0.6v0.9c0.1-0.1,0.2-0.2,0.3-0.2
	c0.2,0,0.3,0.1,0.3,0.2c-0.5,0.1-0.7,0.3-0.6,0.5c0.1,0.2,0.3,0.4,0.6,0.6l0.5-2c0.2-0.7,0.2-1.4,0-1.9c0,0.3-0.1,0.5-0.2,0.5
	c0-0.7-0.1-1.3-0.2-1.7h0.3c-0.4-0.4-0.5-0.8-0.2-1.1c0,0.1,0.1,0.2,0.2,0.2c-0.1-0.9-0.2-1.9-0.2-3v-3c0.1,1.6,0.2,3.2,0.2,4.8
	c0.1,1.6,0.1,3.2,0.1,4.6c1.4-3.5,2.6-7.1,3.8-10.8c1.2-3.7,2.4-7.4,3.8-11.1c2.4-7.2,4.8-14.4,7.3-21.5c2.5-7.1,5.2-13.9,8.3-20.5
	c0.8-1.7,1.7-3.3,2.5-5c0.8-1.6,1.7-3.2,2.7-4.6c0.8-1.5,1.7-2.8,2.7-4.1c0.9-1.3,2.3-2.3,3.9-3.1c0.5-0.3,1-0.7,1.5-1.2
	c0.5-0.5,1.1-0.8,1.8-0.9c0.6,0,1.4,0.1,2.2,0.3c2.9,0.2,5.5,0.9,7.6,2c2.1,1.2,3.6,2.6,4.5,4.4c0.8,1.3,1.3,2.6,1.4,4.1
	c0.1,0.7,0.2,1.5,0.3,2.2c0.1,0.7,0.2,1.5,0.2,2.2c-0.2,2.3-0.6,4.6-1.2,6.8c-0.6,2.2-1.1,4.5-1.5,6.8c-0.4,1.6-0.9,3.1-1.3,4.6
	c-0.5,1.5-1,3.2-1.5,5l-0.5,3.3c-0.2,1-0.4,2.1-0.6,3.1c-0.2,1-0.4,2-0.5,2.9c-0.1,0.3-0.1,0.6-0.1,0.9c0.1,0.3,0,0.7-0.1,1.1
	c-0.8,3.4-1.6,6.8-2.3,10.3c-0.7,3.5-1.3,6.7-1.8,9.7h-0.3c-0.3,1.4-0.5,2.8-0.5,4.3c0,1.5-0.1,2.9-0.2,4.2c0,0.8-0.1,1.7-0.3,2.6
	c-0.2,0.9-0.2,1.6,0,2.1c-0.2,0.1-0.3,0.3-0.3,0.6c-0.1,0.2-0.1,0.3,0.2,0.2c0.2-0.1,0.3-0.1,0.3,0c-0.1,0.9-0.1,1.8,0,2.7
	c0.1,0.8,0.1,1.7-0.2,2.5c0.1,0.2,0.1,0.2,0.1,0c-0.1-0.2,0-0.2,0.2,0c-0.1,0.9-0.2,1.8-0.2,2.7v2.5c0-0.1-0.1-0.2-0.2-0.2
	c-0.2,0.2-0.3,0.5-0.3,0.9c0,0.4-0.1,0.5-0.3,0.5c-0.3,0-0.4-0.2-0.2-0.6c-0.5,0.6-0.7,1.4-0.6,2.2c0.1,0.8,0.2,1.6,0.2,2.2v1
	c0,0.3,0.1,0.5,0.3,0.7c-0.3,0.2-0.4,0.4-0.2,0.7c0.2,0.3,0.3,0.5,0.4,0.7c-0.1-0.2-0.2,0-0.2,0.5v1.2c0,0.6,0.1,1.3,0.2,2
	c0.1,0.7,0.2,1.2,0.2,1.6c0,0.2,0,0.3-0.1,0.2c-0.1,0-0.1,0-0.1,0.1c-0.1,0.1-0.1,0.1,0.1,0.1c0.2-0.1,0.2,0,0.1,0.2l-0.2,0.3v0.2
	c0.2,0.9,0.5,1.9,0.8,3c0.3,1,0.7,2.1,1.1,3.1l-1.3-2h0.2c0-0.3-0.1-0.6-0.2-0.9c-0.2-0.3-0.2-0.6-0.2-0.9c-0.2,0.1-0.3,0-0.4-0.4
	c-0.1-0.4-0.2-0.7-0.4-0.9c0.3,1.6,0.7,3.1,1.3,4.5c0.5,1.4,1,2.8,1.6,4.3c0-0.5-0.1-1-0.2-1.3c-0.1-0.4-0.2-0.8-0.2-1.2
	c0.5,0.9,0.7,1.8,0.6,2.7c-0.1,0.8,0.3,1.6,1.1,2.4v0.6c0,0.3,0.1,0.3,0.2,0.2c0.1-0.1,0.2-0.1,0.2,0.1v-0.1
	c0.2-0.2,0.3-0.1,0.3,0.2c0,0.4,0.1,0.6,0.3,0.7c0.2-0.5,0.2-1,0-1.3c-0.2-0.4-0.4-0.8-0.5-1.3l-0.9-2.2c0.4,0.2,0.7,0.7,0.8,1.5
	c0.1,0.8,0.4,1.2,0.9,1.3c0.1,0.2,0.1,0.4,0,0.5c-0.1,0.1-0.1,0.3,0.2,0.5c0.2,0,0.2-0.1,0.1-0.2c-0.2-0.1-0.2-0.2-0.1-0.2
	c0.3,0.2,0.4,0.3,0.2,0.4c-0.2,0.1-0.2,0.2-0.2,0.6c0.2-0.2,0.4-0.2,0.7,0.2c0.3,0.3,0.3,0.4,0.1,0.3c-0.1-0.2-0.3-0.3-0.5-0.2
	c-0.2,0.1-0.4,0.2-0.5,0.3c0,0.3,0.1,0.6,0.4,0.9c0.3,0.3,0.3,0.6,0.1,0.8c0.1,0.1,0.2,0.2,0.3,0.2c0.1,0,0.2,0.1,0.2,0.3
	c-0.6,0.2-1.3,0.3-2,0.3c-0.7,0-1.1,0.5-1.1,1.4c-0.3,0.2-0.6,0.5-0.8,0.9s-0.4,0.8-0.5,1.3s-0.3,0.8-0.5,1.3
	c-0.1,0.4-0.2,0.7-0.4,0.9c-0.2,0.2-0.3,0.3-0.4,0.5c-0.2,0-0.4,0-0.7,0.1c-0.3,0-0.5,0-0.9-0.2c-0.1-0.1-0.2-0.2-0.3-0.4
	c-0.1-0.2-0.3-0.3-0.6-0.6c-0.5-0.2-0.9-0.4-1.1-0.5c-0.2-0.2-0.5-0.4-0.8-0.7c-1.3-1.5-2.3-3.4-3.2-5.7c-0.9-2.4-1.7-4.5-2.4-6.5
	c-0.6-2.2-1.1-4.4-1.5-6.4c-0.4-2.1-0.7-4.3-0.9-6.6c-0.6-4.6-1-9.3-1.2-14.1c-0.2-4.8-0.1-9.7,0.1-14.7c0.4-6.3,1.2-12.7,2.2-19.3
	c1-6.6,2.1-12.9,3.3-19c0.2-0.8,0.4-1.6,0.5-2.3c0.1-0.7,0.3-1.4,0.6-2.3c0.4-1.9,0.9-3.9,1.5-6.1c0.6-2.1,1-4.3,1.4-6.4
	c0.4-2.1,0.6-4.2,0.7-6.3c0.1-2-0.2-3.9-0.8-5.4c-0.6,0.2-1.2,0.7-1.6,1.3c-0.4,0.7-0.9,1.4-1.4,2.1c-0.8,1.2-1.8,2.4-2.8,3.8
	c-1,1.4-1.8,2.8-2.3,4.2c-0.8,2.1-1.6,4.2-2.4,6.4c-0.7,2.2-1.7,4.3-2.8,6.4c-0.9,2-1.9,4-2.8,6c-0.9,2-1.7,4.1-2.3,6.4
	c-0.5,1.2-0.9,2.3-1.2,3.4c-0.3,1.1-0.5,2.3-0.9,3.5c-0.4,1.2-0.8,2.3-1.2,3.5c-0.4,1.2-0.7,2.3-0.9,3.5c-0.3,0.6-0.6,1.3-0.7,1.9
	c-0.2,0.6-0.3,1.3-0.5,2c-0.2,0.7-0.4,1.4-0.6,2c-0.2,0.6-0.4,1.3-0.6,1.9c-0.4,1.6-0.9,3.1-1.6,4.6c-0.6,1.5-1.2,3.1-1.6,4.9
	c-0.2,1.2-0.4,2.3-0.5,3.5c-0.1,1.2-0.3,2.4-0.5,3.5c-0.3,1.2-0.8,2.5-1.4,3.9c-0.6,1.5-1.2,2.9-1.7,4.4c-0.8,2.4-1.9,4.4-3.1,5.9
	c-1.2,1.5-3.1,2.5-5.7,3.1c-0.5,0.1-1.1,0.2-1.7,0.2c-0.6,0.1-1,0.1-1.2,0.1c-0.6,0-1.2-0.1-1.6-0.4c-0.4-0.3-0.9-0.6-1.4-1
	c-0.9,0.1-1.6-0.4-2-1.4c0-0.2,0.1-0.2,0.2,0c0.1,0.2,0.2,0.2,0.2-0.2c0-0.2,0-0.3-0.1-0.2c-0.1,0.1-0.1,0.2-0.2,0.2
	c0.1-0.3-0.1-0.5-0.5-0.7c-0.4-0.2-0.8-0.4-1.1-0.7c-0.2-0.2-0.3-0.4-0.2-0.7c0-0.3,0-0.4-0.2-0.5c-0.4-2.3-0.7-4.7-0.9-7.2
	c-0.2-2.5-0.4-5-0.6-7.6c-0.2-3.7-0.3-7.4-0.3-11.2c0-3.8,0.2-7.7,0.5-11.8v-3.9c0-1.3,0.1-2.6,0.2-3.9c0.3-3.8,0.8-7.6,1.5-11.6
	c0.7-3.9,1.1-7.8,1.3-11.7c0.2-1,0.3-2.1,0.4-3.2c0-1.1,0.1-2.1,0.1-3.1c0-1.5,0.1-3.1,0.3-4.9c0.2-1.8-0.2-3.2-1.1-4.4
	c-1,0.5-2,1.3-2.8,2.3c-0.8,1-1.4,2-2,3.1c-1.1,2.3-2.2,4.6-3.5,6.8c-1.3,2.2-2.3,4.6-3.1,7.1l-1.1,3.9l-1.3,3.8
	c-0.2,0.3-0.3,0.6-0.2,0.9c0.1,0.3,0.1,0.6-0.2,0.8l-0.8,2.2v1.9c-0.3,1.7-0.7,3.4-1.3,5c-0.5,1.7-0.9,3.4-1.3,5.2
	c-0.2,0.3-0.3,0.7-0.3,1.3c-0.7,2-1.3,3.9-1.6,5.8c-0.5,1.6-0.9,3.1-1,4.5c-0.2,1.4-0.3,2.9-0.5,4.5c-0.5,2.7-1,5.4-1.3,8
	c-0.4,2.6-0.7,5.2-0.9,7.7c-0.2,1-0.3,2.1-0.2,3.1c0.1,1,0.2,2,0.2,3c-0.2,1.8-0.5,3.5-0.9,5c-0.4,1.6-0.6,3.1-0.6,4.7
	c0,0.3,0,0.6,0.1,0.9c0.1,0.3,0.1,0.5,0.1,0.7c0.1,0.3,0.1,0.6,0,0.9c-0.1,0.3-0.1,0.5,0.2,0.7c-0.5,0.6-0.7,1.3-0.5,2
	c0.2,0.7,0.1,1.4-0.3,2c-0.1,0.4-0.2,0.7-0.4,0.9c-0.2,0.2-0.3,0.4-0.5,0.6c-0.4,0.6-0.8,1.2-1,1.7c-0.3,0.5-0.7,0.9-1.3,1.3
	c-0.5,0.4-1.1,0.8-1.8,1.3s-1.4,0.6-2.3,0.6c-0.2-0.1-0.4-0.2-0.7-0.4c-0.3-0.2-0.6-0.2-1-0.2c-0.9-0.8-1.7-1.8-2.3-2.9
	c-0.6-1.1-1.1-2.3-1.7-3.5c-1-2.6-1.7-5.4-2-8.5c-0.3-2.1-0.6-4.2-0.8-6.3c-0.2-2.1-0.4-4.1-0.5-6.1C6,83.7,5.7,78.6,5.5,73.4
	c-0.3-5.2-0.3-10.6-0.1-16.3c0.4-6.1,1.1-12.5,2-19.2c0.9-6.7,2.1-12.9,3.5-18.5c0.4-1.5,0.9-2.9,1.3-4.3c0.5-1.4,0.8-2.9,0.9-4.5
	c0-0.8-0.1-1.7-0.4-2.7c-0.3-0.9-0.1-2,0.4-3.1c0.6-2.4,2.6-3.5,5.8-3.3C21,1.7,22.8,2.2,24.4,3c1.6,0.8,2.9,1.7,3.9,2.5l0.8,0.8
	c0.9,1.4,1.3,3,1.2,5c-0.2,1.9-0.5,4-1.2,6.1c-0.9,4.8-2.1,9.8-3.5,14.9c-0.4,2.2-0.8,4.4-1.1,6.6c-0.3,2.2-0.7,4.5-1.3,6.8
	c-0.6,2.7-1.1,5.4-1.3,8.1c-0.3,2.7-0.4,5.3-0.4,7.9c1.2-7,2.6-13.8,4.4-20.4c1.8-6.6,4-12.7,6.6-18.4c0.8-1.8,1.7-3.6,2.7-5.4
	c0.9-1.8,2-3.6,3.1-5.3c1.8-2.4,3.7-4.5,5.8-6.3c0.2-0.1,0.4-0.2,0.6-0.3c0.2-0.1,0.4-0.2,0.6-0.3c0.4-0.5,1.1-1,2-1.3
	c0.9-0.4,1.8-0.4,2.6-0.2c0.4,0.1,0.8,0.2,1,0.4c0.3,0.2,0.5,0.3,0.9,0.6c0.7,0.4,1.6,0.7,2.7,0.7c1.1,0.1,2.1,0.2,2.9,0.4
	c1.2,0.2,2.1,0.5,3,0.9c0.8,0.4,1.7,1,2.5,1.9c0.5,0.5,0.9,1.1,1.2,1.7c0.3,0.6,0.6,1.4,1,2.2c0.4,1.2,0.5,2.4,0.4,3.8
	c-0.2,1.4-0.3,2.9-0.4,4.7L65,28c-0.2,2.8-0.5,5.8-0.9,8.8c-0.4,3-1.1,5.9-1.9,8.6c-0.2,1.2-0.3,2.4-0.4,3.9
	c-0.1,1.4-0.3,2.5-0.7,3.4c0,0.8-0.1,2-0.2,3.5c-0.2,1.5-0.3,2.7-0.5,3.5c0-0.5,0-0.5,0.1,0.1c0.1,0.6,0,1-0.2,1.2l-0.5,3.1
	c0.1,0,0.2,0.2,0.2,0.5c0.1,0.3,0.1,0.7-0.1,1c-0.2,0.4-0.2,0.8-0.2,1.3v0.3c-0.1,0.1-0.2,0.2-0.2,0.3v2.2V69.5z M46.4,96.9v-0.8
	c-0.1,0.1-0.2,0.3-0.2,0.5C46.1,96.8,46.2,96.9,46.4,96.9 M46.3,94.7c0,0.5,0.1,0.8,0.2,0.8C46.4,95.1,46.4,94.9,46.3,94.7
	 M46.9,97.5v0.2c0.2,0,0.3,0,0.2,0.1c-0.1,0.1,0,0.1,0.2,0.1c0.1-0.1,0-0.2-0.2-0.3C47,97.4,46.9,97.4,46.9,97.5 M47.8,88.9
	c-0.1,0.1,0,0.2,0.3,0.3c0.3,0.1,0.5,0.1,0.5-0.2c-0.2,0-0.3,0-0.4-0.1C48.2,88.9,48.1,88.9,47.8,88.9 M47.8,98.6
	c0,0.2,0.1,0.3,0.3,0.3c0.2,0,0.4,0.1,0.5,0.2c-0.1-0.1-0.2-0.2-0.2-0.3C48.3,98.7,48.2,98.6,47.8,98.6 M48.6,99.2h-0.2
	c0.1,0.1,0.2,0.2,0.2,0.3c0.1,0.1,0.2,0.2,0.4,0.3c0.2-0.2,0.2-0.3-0.1-0.3C48.8,99.6,48.6,99.4,48.6,99.2 M49.4,100
	c-0.2,0-0.3,0.1-0.3,0.3l0.3,0.5V100z M51.3,85.9c0,0.5,0.2,0.8,0.6,0.8c0-0.2-0.1-0.3-0.2-0.4C51.5,86.2,51.4,86.1,51.3,85.9
	 M54.3,90.6l0.3,0.3C54.6,90.5,54.5,90.4,54.3,90.6 M54.8,91.1c0.2,0.2,0.5,0.4,0.8,0.5c0.3,0.2,0.5,0.3,0.6,0.6
	c-0.1,0-0.2,0.1-0.2,0.3c0.1,0,0.2,0.1,0.2,0.2c0.1,0.1,0.1,0.2,0.2,0.2c0-0.1,0-0.2,0.1-0.2c0.1,0,0.1-0.1,0.1-0.2
	c-0.2-0.2-0.5-0.5-0.8-0.8C55.6,91.4,55.2,91.2,54.8,91.1 M56.3,85.7v0.2V85.7z M56.5,86.5c0.1,0.1,0.2,0.3,0.2,0.5
	c0.1,0.2,0.2,0.3,0.4,0.3C56.8,86.8,56.6,86.5,56.5,86.5 M58.2,89.3c0.1-0.2,0.1-0.4-0.1-0.7c-0.2-0.3-0.3-0.5-0.5-0.9
	c0.2,0.3,0.3,0.6,0.3,0.9C57.9,88.9,58,89.1,58.2,89.3 M58.1,24.6v0.6c0-0.2,0.1-0.4,0.3-0.6c-0.1-0.1-0.2-0.1-0.2,0
	C58.2,24.7,58.2,24.7,58.1,24.6 M58.6,77.5c0.1,0,0.1-0.1,0.1-0.2v-0.2v0.2c0-0.1,0.1-0.2,0.2-0.2c0.1,0,0.1-0.1-0.2-0.1
	c-0.1,0-0.2,0-0.2,0.2v0.5C58.5,77.6,58.6,77.5,58.6,77.5 M58.7,26c0.5-0.1,0.8-0.3,0.8-0.5c-0.1-0.1-0.3-0.1-0.5,0.1
	C58.7,25.7,58.6,25.9,58.7,26 M58.7,76.3v0.6c0-0.2,0.1-0.3,0.2-0.4C59.1,76.5,59,76.4,58.7,76.3 M58.9,77.7c0,0.1-0.1,0.2-0.2,0.3
	C59.1,77.8,59.2,77.7,58.9,77.7 M59.3,74.7v0.2C59.4,74.8,59.4,74.7,59.3,74.7 M59.6,75.5v-0.8h-0.2c0,0.1,0,0.2,0.1,0.3
	C59.6,75.1,59.6,75.3,59.6,75.5 M59.6,82.7c0.2,0.4,0.3,0.6,0.2,0.6C59.8,82.9,59.7,82.7,59.6,82.7 M60.4,54c0,0.3,0,0.7-0.1,1
	c-0.1,0.4,0,0.7,0.1,0.9c0-0.2,0.1-0.5,0.2-0.9C60.7,54.6,60.6,54.3,60.4,54 M60.7,50.2c0,0.2,0,0.4-0.1,0.5
	c-0.1,0.1-0.1,0.3-0.1,0.5c0-0.2,0.1-0.4,0.2-0.5C61,50.4,61,50.3,60.7,50.2 M100.2,100.5c0,0.8,0.1,1.5,0.2,1.9
	C100.4,101.4,100.3,100.8,100.2,100.5 M100.4,102.5c0,0.2,0,0.4-0.1,0.7c-0.1,0.3,0,0.5,0.1,0.7c0-0.3,0-0.6,0.1-0.8
	C100.5,103,100.5,102.8,100.4,102.5 M100.5,105.8c-0.1,0.2-0.1,0.5-0.1,1c0.1,0.5,0.2,0.7,0.4,0.6c-0.2-0.3-0.3-0.6-0.2-0.9
	C100.8,106.3,100.7,106.1,100.5,105.8"/>
<path fill="#FFFFFD" d="M140.6,41.7c1.6,0.2,3.2,0.5,4.8,0.9c1.6,0.4,3,1.2,4,2.4c0.5-0.4,1-0.5,1.6-0.3c0.3,0,0.5,0.1,0.7,0.2
	c0.2,0.2,0.3,0.2,0.5,0.2c0.3,0.1,0.7,0.2,1.1,0.2h1.1c1.3,0.2,2.4,0.7,3.5,1.5c1,0.8,1.7,1.8,2,2.9c0.4,1.3,0.6,2.8,0.5,4.7
	c-0.1,0.5-0.1,1-0.1,1.4c0.1,0.4,0,0.9-0.1,1.4c-0.1,0.5-0.2,1-0.4,1.4c-0.2,0.4-0.3,0.9-0.5,1.4l-0.5,2.4c-0.1,0.2-0.3,0.5-0.5,0.8
	c-0.2,0.3-0.3,0.7-0.3,1.1c-0.5,1.7-0.9,3.4-1.2,5.1c-0.3,1.7-0.7,3.5-1.2,5.3c-0.7,1.9-1.2,3.7-1.3,5.3c-0.3,1.9-0.5,3.8-0.5,5.7
	v3.1c0,0.9,0.1,1.9,0.2,2.9c1-0.5,1.8-1.3,2.1-2.2c0.4-0.9,0.9-1.9,1.6-3c0.5-0.6,1-1.2,1.4-1.8c0.4-0.6,0.7-1.1,0.9-1.6
	c0.8-1.6,1.7-2.8,2.5-3.8l1.7-3.9c0.9-2,1.9-3.9,3-5.8c1-1.9,2.2-3.7,3.5-5.5c0.6-1,1.3-2,2-2.8c0.7-0.8,1.5-1.6,2.4-2.4
	c0.2-0.2,0.3-0.2,0.2,0.1c-0.1,0.3,0,0.3,0.2,0.2c0.2,0.1,0.4,0,0.5-0.2c0.1-0.3,0.3-0.3,0.5-0.1c0.2,0.2,0.5,0.4,0.9,0.6
	c0.4,0.2,0.5,0.4,0.5,0.6c-0.4,0.5-0.8,1-1.3,1.5c-0.4,0.5-0.6,1-0.6,1.5c-0.4,0.2-0.7,0.5-0.8,0.9c-0.1,0.4-0.2,0.7-0.3,1
	c-0.3,0.5-0.7,1-1,1.4c-0.4,0.4-0.7,0.9-0.9,1.6c-0.1,0.1-0.2,0.3-0.2,0.6c-0.2,0.2-0.4,0.4-0.5,0.5c-0.2,0.2-0.2,0.3-0.2,0.6v0.6
	c-0.1,0.2-0.2,0.4-0.4,0.7c-0.2,0.3-0.3,0.5-0.4,0.7c-0.4,0.8-0.8,1.6-1,2.4c-0.3,0.8-0.6,1.6-1,2.4c-0.4,0.6-0.8,1.2-1.1,1.7
	c-0.3,0.5-0.5,1.1-0.6,1.7c-0.3,1-0.8,2-1.3,3c-0.6,0.9-1.1,1.8-1.7,2.7c-0.2,0.5-0.4,1-0.7,1.3c-0.3,0.4-0.4,0.7-0.5,0.9
	c-0.3,1.3-0.9,2.6-1.9,4.1c-0.3,0.5-0.7,1-1.1,1.4c-0.4,0.4-0.7,0.8-0.9,1.3c-0.7,0.9-1.6,1.8-2.5,2.5c-0.5,0.2-1,0.5-1.6,0.9
	c-0.5,0.4-1,0.7-1.6,0.9c-0.6,0.2-1.4,0.4-2.2,0.7c-0.8,0.3-1.7,0.3-2.5,0.1c-1.4-0.1-2.6-0.6-3.6-1.6l-2-2l-0.5-1.3l-0.6-1.4
	c-0.5-1.7-0.8-3.4-0.9-5.1c-0.1-1.7-0.1-3.5,0-5.3c0.3-1.8,0.6-3.5,0.9-5.2c0.3-1.7,0.5-3.3,0.6-4.9c-0.3,1.3-0.7,2.5-1.1,3.6
	c-0.4,1.2-0.8,2.3-1.3,3.5c-0.2,0.6-0.4,1.2-0.7,1.7c-0.3,0.5-0.5,1-0.9,1.6c-0.2,0.5-0.5,1-1,1.5c-0.5,0.5-0.8,1-1,1.5
	c-0.1,0.2-0.2,0.5-0.2,0.8c-0.1,0.2-0.3,0.4-0.5,0.7c-0.3,0.3-0.5,0.5-0.7,0.7c-0.8,2-2.1,3.3-3.8,3.9c-0.9,0.5-2,0.9-3.2,1
	c-1.2,0.2-2.4,0.4-3.5,0.7c-0.5,0.2-1,0.4-1.5,0.6c-0.5,0.2-1.1,0.2-2,0.1c-1.4-0.2-2.5-0.8-3.5-1.7c-1-0.9-1.6-1.9-2-2.8
	c-0.8-1.8-1.2-3.8-1.2-5.9c0.1-2.1,0.2-4.3,0.4-6.5c0.2-2.2,0.6-4.2,1-6.1c0.5-1.8,1-3.6,1.5-5.4c0.8-1.8,1.7-3.5,2.6-5.1
	c0.9-1.6,1.8-3.2,2.6-4.6c0.3-0.8,0.7-1.6,1.1-2.4c0.4-0.7,0.8-1.5,1.3-2.2c0.4-0.4,0.8-0.8,1.1-1c0.3-0.3,0.6-0.6,0.8-0.9l1.4-2.2
	l2.5-1.7c0.3-0.3,0.6-0.6,0.9-0.9c0.3-0.3,0.6-0.6,1-0.9c0.3-0.2,0.7-0.4,1.3-0.6c0.5-0.2,1-0.4,1.4-0.6c0.5-0.3,1-0.6,1.4-0.9
	c0.4-0.3,0.9-0.5,1.6-0.5c0.2-0.1,0.4-0.1,0.7,0c0.3,0.1,0.6,0.1,1,0V41.7z M129.8,82.1c1.2-1.8,2.2-3.6,3.2-5.3
	c1-1.8,1.9-3.6,2.7-5.5l4.4-8.6l4.1-8.6c0.2-0.5,0.4-1,0.7-1.5c0.3-0.5,0.4-0.9,0.5-1.3c0.1-0.4,0.1-1-0.1-1.6
	c-0.2-0.7-0.3-1.2-0.6-1.6c-0.2-0.2-0.5-0.4-0.9-0.7c-0.4-0.3-0.8-0.4-1.3-0.4c-0.8,0.1-1.4,0.3-1.8,0.7c-0.4,0.4-0.9,0.8-1.5,1.3
	l-1.6,1.7c-0.2,0.3-0.4,0.7-0.5,1c-0.1,0.4-0.3,0.8-0.5,1.2c-0.6,0.6-1,1.3-1.3,2c-0.2,0.4-0.3,0.8-0.4,1.3
	c-0.1,0.4-0.1,0.8-0.2,1.3c-0.2,0.4-0.4,0.8-0.7,1.2c-0.3,0.4-0.4,0.7-0.6,1c-0.2,0.5-0.3,1-0.4,1.6c-0.1,0.5-0.2,1-0.5,1.6
	c-0.1,0.8-0.4,1.7-0.8,2.7c-0.2,0.5-0.4,1-0.5,1.6c-0.1,0.5-0.3,1-0.5,1.6c-0.2,0.5-0.4,1-0.6,1.4c-0.2,0.4-0.4,0.9-0.5,1.4
	c-0.7,2.1-1.3,4.3-1.6,6.5c-0.3,2.3-0.4,4.6-0.2,7c0.3-0.3,0.6-0.7,0.8-1.2C129.2,83.1,129.4,82.6,129.8,82.1"/>
<path fill="#FFFFFD" d="M209.9,73.3c-0.9,1.5-1.8,3-2.7,4.7c-0.8,1.7-1.7,3.4-2.5,5c-0.8,1.8-1.8,3.4-2.8,4.9
	c-1,1.5-1.9,3.1-2.7,4.9c-0.2,0.8-0.5,1.7-0.9,2.6c-0.4,0.9-0.8,1.8-1.2,2.6c-0.2,0.9-0.5,1.9-0.9,2.7c-0.4,0.9-0.8,1.8-1.3,2.6
	c-0.4,0.8-0.8,1.7-1,2.7c-0.3,0.9-0.6,1.8-0.9,2.5c-0.8,1.9-1.8,3.6-2.8,5c-1,1.5-2.2,2.7-3.5,3.6c-0.6,0.6-1.6,1.1-2.8,1.5
	c-1.3,0.4-2.6,0.4-3.9,0.1c-1.5-0.5-2.8-1.3-3.9-2.2c-0.2-0.3-0.6-0.6-1-0.9c-0.5-0.3-0.8-0.7-1-1.1l-1.1-2.2l-2.7-6.8
	c-0.4-1.7-0.7-3.5-0.7-5.3c-0.1-1.9-0.2-3.7-0.4-5.5c-0.1-1.9-0.2-3.8-0.2-5.7v-5.7c0-1.8,0.1-3.6,0.3-5.3c0.2-1.8,0.4-3.6,0.6-5.3
	c0.1-2,0.3-3.9,0.5-5.8c0.3-1.9,0.7-3.7,1.2-5.5c0.3-1.9,0.6-3.7,0.9-5.6c0.3-1.8,0.7-3.6,1.2-5.4c0.2-0.9,0.4-2.1,0.6-3.5
	c0.2-1.4,0.5-2.6,0.9-3.5c0.5-2.5,1.4-5.5,2.5-8.9c1.2-3.4,2-6.4,2.7-8.9c-4.4,0-8.2,0.5-11.3,1.6c-0.2,0-0.4,0.1-0.5,0.2
	c-0.1,0.2-0.3,0.3-0.5,0.4l-2.4,0.3c-0.2,0.1-0.4,0.2-0.7,0.3c-0.3,0.1-0.6,0.2-1,0.3c-0.8,0.2-2,0.3-3.5,0.3
	c-1.5,0-2.6-0.1-3.5-0.2c-0.3-0.1-0.7-0.2-1-0.2c-0.4,0-0.7-0.2-1-0.4c0.2-1,0.6-1.8,1.2-2.4c0.6-0.5,1.2-1,1.8-1.4
	c1-0.4,2.1-0.8,3.1-1.2c1-0.4,2.1-0.7,3.2-0.9c1-0.3,2.1-0.6,3.2-0.9c1.1-0.3,2.2-0.6,3.4-0.8h1.9c1.5-0.2,3-0.3,4.6-0.4
	c1.6-0.1,3.2,0,4.9,0.1c0.8-1.5,1.4-2.6,1.8-3.5c0.4-0.8,0.9-2.1,1.6-3.8c0.2-0.5,0.5-1,0.8-1.6c0.3-0.5,0.6-1.1,0.8-1.7
	c0.2-0.8,0.4-1.3,0.5-1.5c0.2-0.2,0.6-0.4,1.3-0.9c0.7-0.4,1.6-0.7,2.5-0.7c0.9-0.1,1.9,0.1,2.8,0.4c0.9,0.3,1.8,0.7,2.5,1.2
	c0.7,0.5,1.3,1,1.6,1.5c0.6,0.9,0.8,1.7,0.6,2.4c-0.2,0.6-0.5,1.4-0.8,2.4c-0.1,0.5-0.2,0.9-0.4,1.3c-0.2,0.3-0.3,0.6-0.5,0.9
	c-0.2,0.6-0.2,0.8-0.1,0.6c0.2-0.2,0.1,0-0.1,0.6l-1.1,3.1c1.8,0.5,3.7,0.8,5.7,0.9c2,0.1,4.1,0.2,6.3,0.4c2.3,0,4.6,0,6.8,0.1
	c2.2,0.1,4.5-0.1,6.9-0.4c0.8-0.1,1.7-0.2,2.7-0.3c0.9-0.1,1.8-0.2,2.7-0.2c0.2,0.2,0.2,0.4,0.1,0.6c-0.2,0.2-0.2,0.4-0.2,0.6
	c0.1,0.2,0.3,0.3,0.5,0.2c0.2-0.1,0.3,0,0.3,0.2c0.2,0.1,0.3,0.2,0.2,0.2c-0.1,0-0.2,0.1-0.2,0.3c-0.2,0.5-0.3,0.9-0.4,1.2
	c-0.1,0.3-0.2,0.5-0.5,0.9c-0.7,0.5-1.8,0.9-3.1,1c-1.4,0.2-2.8,0.3-4.2,0.4c-0.5,0.2-1.2,0.3-1.9,0.2c-0.7-0.1-1.5-0.2-2.2-0.2
	s-1.4,0.1-2.1,0.2c-0.7,0.2-1.3,0.2-1.8,0.2c-0.7,0-1.5,0-2.2-0.1c-0.7-0.1-1.4-0.1-1.9-0.1c-0.9,0-1.8,0-2.4,0.1
	c-0.7,0.1-1.4,0-2.3-0.1c-1.6-0.2-3-0.4-4.4-0.7c-1.4-0.3-2.7-0.3-3.9-0.2c-0.4,0.8-0.7,1.7-0.9,2.5c-0.2,0.8-0.4,1.7-0.6,2.5
	c-0.1,0.4-0.3,0.8-0.5,1.3l-0.6,1.3c-0.1,0.5-0.3,1.4-0.5,2.6c-0.2,1.2-0.4,2-0.6,2.4c-0.4,1.4-0.9,2.9-1.5,4.6
	c-0.6,1.7-1,3.3-1.2,4.8c0,0.6-0.1,1.3-0.2,2c-0.1,0.7-0.2,1.4-0.3,2.1c-0.2,0.7-0.3,1.4-0.4,2.1c-0.1,0.7-0.2,1.4-0.4,2.3
	c-0.1,0.6-0.2,1.3-0.4,1.9c-0.2,0.6-0.3,1.3-0.6,2c-0.5,2.1-0.9,4.2-1.2,6.2c-0.3,2-0.4,4-0.5,5.7c-0.2,1.6-0.4,3.1-0.5,4.6
	c-0.2,1.5-0.3,3-0.4,4.6c-0.1,4.4,0.1,8.7,0.5,12.9c0.1,2.1,0.3,4.1,0.5,6c0.2,1.9,0.8,3.7,1.7,5.3c0,0.2-0.1,0.3-0.2,0.2
	c-0.1-0.1-0.2,0-0.2,0.1c0.2,0.4,0.4,0.8,0.5,1.1c0.1,0.3,0.2,0.6,0.3,0.9c-0.1,0-0.2-0.1-0.2-0.2c0-0.1-0.1-0.2-0.2-0.2
	c-0.1,0.1-0.2,0.3-0.2,0.5s0.1,0.4,0.3,0.5c-0.1,0.1-0.2,0.1-0.2,0c-0.1-0.1-0.1-0.1-0.2,0c0,0.1,0.1,0.2,0.2,0.3
	c0.2,0.1,0.3,0.2,0.4,0.3c0.2,0,0.3-0.1,0.2-0.3c-0.1-0.2,0.1-0.3,0.5-0.2c0.2-0.5,0.4-1,0.6-1.6c0.2-0.5,0.5-1.1,0.8-1.7
	c0.6-0.7,1.1-1.6,1.4-2.7c0.2-0.4,0.4-0.9,0.7-1.3c0.3-0.5,0.5-1,0.7-1.5c0.2-0.5,0.5-1,0.9-1.4c0.4-0.4,0.7-0.9,0.9-1.4
	c0.8-1.8,1.6-3.6,2.4-5.5c0.7-1.9,1.6-3.8,2.5-5.7l3-5.3c0.8-2,1.7-3.9,2.6-5.7c0.9-1.8,1.9-3.6,3.1-5.3c2.2-3.5,4.6-6.5,7.2-9.1
	c-0.2,0.4-0.4,0.9-0.5,1.4c-0.2,0.5-0.3,1-0.5,1.4c0.1,0.3,0.3,0.5,0.6,0.7c0.3,0.2,0.5,0.3,0.5,0.5c0.1,0.3,0.1,0.7-0.2,1
	c-0.2,0.4-0.4,0.8-0.5,1.2c-0.5,0.8-1,1.8-1.6,3c-0.5,1.2-1.1,2-1.6,2.7L209.9,73.3z M209.5,73c-0.1,0.1,0,0.2,0.3,0.2
	C209.6,73.1,209.5,73.1,209.5,73"/>
<path fill="#FFFFFD" d="M216.1,92.3c2.4-0.6,4.6-1.7,6.4-3.2c1.9-1.5,3.4-3.1,4.6-4.6c2.1-2.7,4.4-5.4,7-7.9
	c2.6-2.6,4.6-5.2,6.1-7.9c0.8-0.9,1.9-2.3,3.1-4.1c1.3-1.8,2.4-3.1,3.5-3.9c0.2-0.2,0.3-0.2,0.3,0c0,0.2,0.1,0.4,0.3,0.6
	c-0.1,0.1-0.1,0.2,0,0.2l0.2,0.2v-0.3c0.2-0.1,0.5-0.2,0.9-0.2c0.4-0.1,0.6,0,0.5,0.2c0.1,0.2,0.1,0.4,0.1,0.6
	c-0.1,0.2,0,0.3,0.2,0.5c-0.2,0.6-0.7,1.5-1.5,2.6c-0.8,1.1-1.7,2.2-2.6,3.5c-0.9,1.2-1.8,2.4-2.6,3.5c-0.8,1.1-1.2,2-1.2,2.6
	c0,0.6-0.5,1.3-1.4,1.9c0,0.4-0.3,0.9-0.8,1.6c-0.3,0.7-0.9,1.4-1.7,2c-0.8,0.6-1.5,1.2-1.9,2c-0.8,2-1.9,3.8-3.1,5.5
	c-1.3,1.7-2.6,3.4-4.1,5c-1.2,1.2-2.3,2.3-3.4,3.5c-1.1,1.2-2.5,2.2-4.3,3.1c-1.4,0.3-2.6,0.7-3.7,1.2c-1.1,0.5-2.4,0.7-3.8,0.5
	c-1.8,0.1-3.3-0.3-4.6-1.3c-1.3-1-2.4-2-3.2-3.1c-0.9-1.5-1.6-3.4-2-5.9c-0.4-2.5-0.5-4.8-0.4-7c0-1.8,0.1-3.5,0.2-5.3
	c0.1-1.7,0.3-3.3,0.6-4.8c0.5-4.7,1.7-9,3.5-12.9c1.8-3.9,4-7.4,6.5-10.5c1.4-1.6,2.6-3,3.9-4.4c1.2-1.4,2.6-2.6,4.2-3.8l1.9-1.3
	c0.5-0.2,0.9-0.4,1.1-0.6c0.2-0.2,0.4-0.3,0.6-0.3c0.5-0.1,0.8-0.1,0.9-0.1c0.1,0.1,0.2,0.1,0.4,0.1c0.2-0.2,0.4-0.3,0.6-0.2
	c0.2,0.1,0.4,0.1,0.6,0.1c2.2,0.4,4,1.2,5.5,2.2c0.5,0.4,0.9,0.8,1.3,1.3c0.3,0.4,0.5,1.2,0.5,2.2c0.3,2.6,0,5.1-1,7.4
	c-1,2.3-2.2,4.3-3.7,6c-0.7,0.7-1.4,1.4-2,2.1c-0.6,0.7-1.2,1.4-1.8,2.3c-0.8,0.7-1.7,1.5-2.5,2.3c-0.8,0.8-1.8,1.2-3,1.3l-1.6,0.3
	c-0.5,0.2-0.9,0.6-1.1,1c-0.2,0.5-0.4,0.9-0.6,1.3c-1,2.6-1.9,5.8-2.5,9.6c-0.3,2.4-0.4,4.7-0.4,6.8c0.1,2.1,0.5,4.2,1.3,6.3
	L216.1,92.3z M221,61.7c0.8,0,1.6-0.3,2.2-0.8c0.6-0.5,1.2-1,1.6-1.4c1.3-1.5,2.7-3.1,4.3-4.9c1.6-1.8,2.5-3.7,2.7-5.7
	c0.1-0.5,0.2-1.1,0.2-1.7c0.1-0.6,0-1.2-0.2-1.6c-0.2-0.5-0.8-0.8-1.9-0.8c-1,0-1.7,0.1-1.9,0.3c-0.5,0.3-0.9,0.8-1,1.4
	c-0.2,0.6-0.3,1.2-0.5,1.6c-0.2,0.5-0.4,1-0.7,1.4c-0.3,0.4-0.5,0.9-0.7,1.4c-0.2,0.5-0.4,1-0.5,1.4c-0.1,0.4-0.3,0.9-0.5,1.4
	c-0.3,0.3-0.6,0.7-0.7,1.2c-0.2,0.5-0.3,1-0.6,1.5c-0.6,0.6-1,1.3-1.3,2c-0.2,0.7-0.5,1.4-0.8,2.3c0,0.2-0.1,0.4-0.2,0.6
	c-0.2,0.2-0.1,0.3,0.1,0.4H221z M247.4,61.2v0.2c0-0.1,0.1-0.2,0.2-0.2H247.4z M247.7,61l-0.2,0.2C247.3,60.8,247.4,60.7,247.7,61"
	/>
<path fill="#FFFFFD" d="M263.1,41.7c1.6,0.2,3.2,0.5,4.8,0.9c1.6,0.4,3,1.2,4,2.4c0.5-0.4,1-0.5,1.6-0.3c0.3,0,0.5,0.1,0.7,0.2
	c0.2,0.2,0.3,0.2,0.5,0.2c0.3,0.1,0.7,0.2,1.1,0.2h1.1c1.3,0.2,2.4,0.7,3.5,1.5c1,0.8,1.7,1.8,2,2.9c0.4,1.3,0.6,2.8,0.5,4.7
	c-0.1,0.5-0.1,1-0.1,1.4c0.1,0.4,0,0.9-0.1,1.4c-0.1,0.5-0.2,1-0.4,1.4c-0.2,0.4-0.3,0.9-0.5,1.4l-0.5,2.4c-0.1,0.2-0.3,0.5-0.5,0.8
	c-0.2,0.3-0.3,0.7-0.3,1.1c-0.5,1.7-0.9,3.4-1.2,5.1c-0.3,1.7-0.7,3.5-1.2,5.3c-0.7,1.9-1.2,3.7-1.3,5.3c-0.3,1.9-0.5,3.8-0.5,5.7
	v3.1c0,0.9,0.1,1.9,0.2,2.9c1-0.5,1.8-1.3,2.1-2.2c0.4-0.9,0.9-1.9,1.6-3c0.5-0.6,1-1.2,1.4-1.8c0.4-0.6,0.7-1.1,0.9-1.6
	c0.8-1.6,1.7-2.8,2.5-3.8l1.7-3.9c0.9-2,1.9-3.9,3-5.8c1-1.9,2.2-3.7,3.5-5.5c0.6-1,1.3-2,2-2.8c0.7-0.8,1.5-1.6,2.4-2.4
	c0.2-0.2,0.3-0.2,0.2,0.1c-0.1,0.3,0,0.3,0.2,0.2c0.2,0.1,0.4,0,0.5-0.2c0.1-0.3,0.3-0.3,0.5-0.1c0.2,0.2,0.5,0.4,0.9,0.6
	c0.4,0.2,0.5,0.4,0.5,0.6c-0.4,0.5-0.8,1-1.3,1.5c-0.4,0.5-0.6,1-0.6,1.5c-0.4,0.2-0.7,0.5-0.8,0.9c-0.1,0.4-0.2,0.7-0.3,1
	c-0.3,0.5-0.7,1-1,1.4c-0.4,0.4-0.7,0.9-0.9,1.6c-0.1,0.1-0.2,0.3-0.2,0.6c-0.2,0.2-0.4,0.4-0.5,0.5c-0.2,0.2-0.2,0.3-0.2,0.6v0.6
	c-0.1,0.2-0.2,0.4-0.4,0.7c-0.2,0.3-0.3,0.5-0.4,0.7c-0.4,0.8-0.8,1.6-1,2.4c-0.3,0.8-0.6,1.6-1,2.4c-0.4,0.6-0.8,1.2-1.1,1.7
	c-0.3,0.5-0.5,1.1-0.6,1.7c-0.3,1-0.8,2-1.3,3c-0.6,0.9-1.1,1.8-1.7,2.7c-0.2,0.5-0.4,1-0.7,1.3c-0.3,0.4-0.4,0.7-0.5,0.9
	c-0.3,1.3-0.9,2.6-1.9,4.1c-0.3,0.5-0.7,1-1.1,1.4c-0.4,0.4-0.7,0.8-0.9,1.3c-0.7,0.9-1.6,1.8-2.5,2.5c-0.5,0.2-1,0.5-1.6,0.9
	c-0.5,0.4-1,0.7-1.6,0.9c-0.6,0.2-1.4,0.4-2.2,0.7c-0.8,0.3-1.7,0.3-2.5,0.1c-1.4-0.1-2.6-0.6-3.6-1.6l-2-2l-0.5-1.3l-0.6-1.4
	c-0.5-1.7-0.8-3.4-0.9-5.1c-0.1-1.7-0.1-3.5,0-5.3c0.3-1.8,0.6-3.5,0.9-5.2c0.3-1.7,0.5-3.3,0.6-4.9c-0.3,1.3-0.7,2.5-1.1,3.6
	c-0.4,1.2-0.8,2.3-1.3,3.5c-0.2,0.6-0.4,1.2-0.7,1.7c-0.3,0.5-0.5,1-0.9,1.6c-0.2,0.5-0.5,1-1,1.5c-0.5,0.5-0.8,1-1,1.5
	c-0.1,0.2-0.2,0.5-0.2,0.8c-0.1,0.2-0.3,0.4-0.5,0.7c-0.3,0.3-0.5,0.5-0.7,0.7c-0.8,2-2.1,3.3-3.8,3.9c-0.9,0.5-2,0.9-3.2,1
	c-1.2,0.2-2.4,0.4-3.5,0.7c-0.5,0.2-1,0.4-1.5,0.6c-0.5,0.2-1.1,0.2-2,0.1c-1.4-0.2-2.5-0.8-3.5-1.7c-1-0.9-1.6-1.9-2-2.8
	c-0.8-1.8-1.2-3.8-1.2-5.9c0.1-2.1,0.2-4.3,0.4-6.5c0.2-2.2,0.6-4.2,1-6.1c0.5-1.8,1-3.6,1.5-5.4c0.8-1.8,1.7-3.5,2.6-5.1
	c0.9-1.6,1.8-3.2,2.6-4.6c0.3-0.8,0.7-1.6,1.1-2.4c0.4-0.7,0.8-1.5,1.3-2.2c0.4-0.4,0.8-0.8,1.1-1c0.3-0.3,0.6-0.6,0.8-0.9l1.4-2.2
	l2.5-1.7c0.3-0.3,0.6-0.6,0.9-0.9c0.3-0.3,0.6-0.6,1-0.9c0.3-0.2,0.7-0.4,1.3-0.6c0.5-0.2,1-0.4,1.4-0.6c0.5-0.3,1-0.6,1.4-0.9
	c0.4-0.3,0.9-0.5,1.6-0.5c0.2-0.1,0.4-0.1,0.7,0c0.3,0.1,0.6,0.1,1,0V41.7z M252.2,82.1c1.2-1.8,2.2-3.6,3.2-5.3
	c1-1.8,1.9-3.6,2.7-5.5l4.4-8.6l4.1-8.6c0.2-0.5,0.4-1,0.7-1.5c0.3-0.5,0.4-0.9,0.5-1.3c0.1-0.4,0.1-1-0.1-1.6
	c-0.2-0.7-0.3-1.2-0.6-1.6c-0.2-0.2-0.5-0.4-0.9-0.7c-0.4-0.3-0.8-0.4-1.3-0.4c-0.8,0.1-1.4,0.3-1.8,0.7c-0.4,0.4-0.9,0.8-1.5,1.3
	l-1.6,1.7c-0.2,0.3-0.4,0.7-0.5,1c-0.1,0.4-0.3,0.8-0.5,1.2c-0.6,0.6-1,1.3-1.3,2c-0.2,0.4-0.3,0.8-0.4,1.3
	c-0.1,0.4-0.1,0.8-0.2,1.3c-0.2,0.4-0.4,0.8-0.7,1.2c-0.3,0.4-0.4,0.7-0.6,1c-0.2,0.5-0.3,1-0.4,1.6c-0.1,0.5-0.2,1-0.5,1.6
	c-0.1,0.8-0.4,1.7-0.8,2.7c-0.2,0.5-0.4,1-0.5,1.6c-0.1,0.5-0.3,1-0.5,1.6c-0.2,0.5-0.4,1-0.6,1.4c-0.2,0.4-0.4,0.9-0.5,1.4
	c-0.7,2.1-1.3,4.3-1.6,6.5c-0.3,2.3-0.4,4.6-0.2,7c0.3-0.3,0.6-0.7,0.8-1.2C251.7,83.1,251.9,82.6,252.2,82.1"/>
<path fill="#FFFFFD" d="M294.7,50.2c0.4-1,0.8-2.1,1.1-3.1c0.3-1,0.8-1.9,1.6-2.7c0.3-0.2,0.6-0.4,0.9-0.5c0.3-0.1,0.5-0.3,0.7-0.5
	c0.5,0.2,1.3,0.3,2.4,0.2c1-0.1,1.9-0.2,2.5-0.2c1.6,0.3,2.8,1,3.7,2c0.9,1,1.1,2.4,0.5,4.1c-0.4,1.7-1,3.3-1.8,4.9
	c-0.8,1.6-1.3,3.3-1.5,5.2c1-2.3,2.2-4.5,3.4-6.5c1.2-2,2.6-4,4.2-5.9c0.9-1,2.1-2.2,3.6-3.4c1.5-1.2,3-2.2,4.7-2.9
	c0.4-0.2,1-0.4,1.8-0.5c0.8-0.1,1.3-0.2,1.7-0.2c0.4,0,0.6,0,0.6-0.1c0-0.1,0.2,0,0.6,0.2c0.5,0.2,0.7,0.3,0.6,0.4
	c-0.1,0.1,0.2,0.2,0.9,0.4c1.5,0.3,2.5,1.2,3,2.6c0.5,1.4,0.5,3,0,4.8c-0.1,0.6-0.4,1.4-0.9,2.2c-0.5,0.8-0.8,1.8-1,2.8
	c-0.4,0.8-0.8,1.7-1.2,2.5c-0.4,0.8-0.8,1.5-1.3,1.9c-0.2,0.2-0.3,0.4-0.2,0.5c0.1,0.2,0.1,0.3,0,0.6c-0.3,0.3-0.4,0.5-0.3,0.7
	c0.1,0.2-0.1,0.4-0.6,0.7c-0.2,0.5-0.3,0.8-0.4,0.7c-0.1-0.1-0.2,0-0.5,0.2c-0.4,0.2-0.8,0.4-1.2,0.5c-0.4,0.2-0.7,0.1-1-0.1
	c-0.5-0.2-1.4-0.5-2.5-1c-1.2-0.5-1.8-1-1.9-1.7c0-0.4-0.1-0.8-0.4-1c-0.3-0.3-0.4-0.6-0.5-0.9l0.5-1.7c0.2-1.3,0.5-2.5,0.9-3.7
	c0.4-1.2,0.8-2.4,1.3-3.5c-2.1,1.5-4,3.3-5.7,5.3c-1.7,2.1-3.1,4.4-4.4,6.8c-0.7,1.2-1.2,1.9-1.4,2.2c-0.2,0.3-0.3,0.6-0.4,0.8
	c-0.1,0.2-0.1,0.5-0.2,1c-0.1,0.5-0.4,1.4-0.9,2.8c0,0.3-0.1,0.4-0.2,0.4c-0.1,0-0.2,0-0.2,0.2c-0.2,1.2-0.4,2.3-0.5,3.4
	c-0.1,1.1-0.4,2.2-0.9,3.2c-0.5,1.6-0.8,3.1-0.8,4.7c0,1.6-0.1,3.2-0.2,4.9c-0.4,1.7-0.7,3.4-0.9,5.1c-0.2,1.7-0.1,3.3,0.1,4.8
	c-0.3,0-0.5,0.1-0.5,0.2c-0.2,0.2-0.3,0.4-0.3,0.6c0,0.2-0.1,0.3-0.2,0.5c0,0.2-0.1,0.3-0.4,0.2c-0.3-0.1-0.5,0-0.7,0.1v0.2
	l-0.2,0.3c-0.1,0-0.2,0-0.2,0.1c0,0.1-0.1,0.1-0.2,0.1l-0.2,0.2l-0.6,0.9c-0.2,0.3-0.7,0.6-1.5,0.9c-0.8,0.3-1.4,0.4-2,0.6
	c-0.8,0.1-1.4-0.1-1.8-0.6c-0.4-0.5-1-0.6-1.8-0.5c-0.8-0.8-1.4-1.8-1.6-3c-0.2-1.2-0.5-2.5-0.8-4.1c-0.4-3-0.5-6.4-0.2-10
	c0.3-3.6,0.7-7.3,1.3-10.9c0.4-2.5,0.7-4.5,0.9-6.1c0.2-1.5,0.3-2.9,0.6-4.1c0.2-1.2,0.5-2.4,0.9-3.7c0.4-1.3,1-2.9,1.8-5
	c0-0.2,0-0.5-0.1-0.8c-0.1-0.3,0-0.5,0.2-0.6V50.2z"/>
</svg>
