<svg xmlns="http://www.w3.org/2000/svg" viewBox="0 0 41.21 40.86"><defs><style>.cls-1{fill-rule:evenodd;}</style></defs><g id="Layer_2" data-name="Layer 2"><g id="Layer_1-2" data-name="Layer 1"><path class="cls-1" d="M20.61,0A20.54,20.54,0,0,0,0,20.43a20.61,20.61,0,0,0,41.21,0A20.53,20.53,0,0,0,20.61,0ZM30,17.21v.62a13,13,0,0,1-20.1,10.9,9.43,9.43,0,0,0,6.74-1.86,4.42,4.42,0,0,1-4.25-3.22,4.29,4.29,0,0,0,2.13-.12,4.52,4.52,0,0,1-3.63-4.46,6.26,6.26,0,0,0,2.13.62,4.5,4.5,0,0,1-1.38-6.07,13.43,13.43,0,0,0,9.5,4.83,2.93,2.93,0,0,1-.13-1,4.42,4.42,0,0,1,1.5-3.35,4.6,4.6,0,0,1,6.49.25,11.94,11.94,0,0,0,2.88-1.11,4,4,0,0,1-2,2.47A10.31,10.31,0,0,0,32.47,15C31.6,15.72,30.85,16.47,30,17.21Z"/></g></g></svg>