<svg xmlns="http://www.w3.org/2000/svg" viewBox="0 0 40.97 40.82"><defs><style>.cls-1{fill-rule:evenodd;}</style></defs><g id="Layer_2" data-name="Layer 2"><g id="Layer_1-2" data-name="Layer 1"><path class="cls-1" d="M19.48,0A20.45,20.45,0,0,0,0,20.33a18.8,18.8,0,0,0,2.25,9.16L.13,39.89a.72.72,0,0,0,1,.87l10.37-2.48a19,19,0,0,0,8.74,2.1A20.39,20.39,0,0,0,41,20.82,20.38,20.38,0,0,0,19.48,0ZM31.85,31.47a16.05,16.05,0,0,1-11.37,4.7,15.81,15.81,0,0,1-7.12-1.6l-1.49-.75L5.62,35.31,7,28.87l-.74-1.36A16,16,0,0,1,4.5,20.33,15.67,15.67,0,0,1,9.24,9.06,16.27,16.27,0,0,1,20.61,4.35,15.93,15.93,0,0,1,32,9.06a15.74,15.74,0,0,1,4.75,11.27A17,17,0,0,1,31.85,31.47Z"/><path class="cls-1" d="M27.23,30c-2.75.62-6.87,0-12.12-4.83C10.62,21,9.49,17.51,9.74,14.79A6.94,6.94,0,0,1,12.36,11a1.44,1.44,0,0,1,2.25.49l1.63,3.72a1.27,1.27,0,0,1-.13,1.48l-.87,1.12a1.5,1.5,0,0,0-.13,1.61A21.11,21.11,0,0,0,22,25.31a1.78,1.78,0,0,0,1.62-.37l1-1a1.64,1.64,0,0,1,1.5-.37l4,1.11a1.36,1.36,0,0,1,.62,2.23A6.57,6.57,0,0,1,27.23,30Z"/></g></g></svg>